<svg width="313" height="580" viewBox="0 0 313 580" fill="none" xmlns="http://www.w3.org/2000/svg">
<path d="M111.94 266.318C111.837 266.318 111.731 266.307 111.631 266.287C111.478 266.257 111.381 266.11 111.409 265.96C111.439 265.807 111.587 265.71 111.737 265.738C111.804 265.752 111.87 265.757 111.937 265.757H112.661C112.816 265.757 112.942 265.882 112.942 266.037C112.942 266.193 112.816 266.318 112.661 266.318H111.94ZM114.06 266.315C113.904 266.315 113.779 266.19 113.779 266.035C113.779 265.879 113.904 265.754 114.06 265.754H115.039C115.195 265.754 115.32 265.879 115.32 266.035C115.32 266.19 115.195 266.315 115.039 266.315H114.06ZM116.439 266.312C116.283 266.312 116.158 266.187 116.158 266.032C116.158 265.876 116.283 265.752 116.439 265.752H117.418C117.574 265.752 117.699 265.876 117.699 266.032C117.699 266.187 117.574 266.312 117.418 266.312H116.439ZM118.818 266.309C118.662 266.309 118.537 266.184 118.537 266.029C118.537 265.874 118.662 265.749 118.818 265.749H119.797C119.953 265.749 120.078 265.874 120.078 266.029C120.078 266.184 119.953 266.309 119.797 266.309H118.818ZM121.194 266.307C121.038 266.307 120.913 266.182 120.913 266.026C120.913 265.871 121.038 265.746 121.194 265.746L122.173 265.743C122.329 265.743 122.454 265.868 122.454 266.024C122.454 266.179 122.329 266.304 122.173 266.304L121.194 266.307ZM123.572 266.301C123.417 266.301 123.291 266.176 123.291 266.021C123.291 265.865 123.417 265.74 123.572 265.74L124.552 265.738C124.708 265.738 124.833 265.863 124.833 266.018C124.833 266.173 124.708 266.298 124.552 266.298L123.572 266.301ZM125.951 266.298C125.795 266.298 125.67 266.173 125.67 266.018C125.67 265.863 125.795 265.738 125.951 265.738L126.931 265.735C127.086 265.735 127.212 265.86 127.212 266.015C127.212 266.171 127.086 266.295 126.931 266.295L125.951 266.298ZM128.327 266.295C128.171 266.295 128.046 266.171 128.046 266.015C128.046 265.86 128.171 265.735 128.327 265.735L129.307 265.732C129.462 265.732 129.588 265.857 129.588 266.012C129.588 266.168 129.462 266.293 129.307 266.293L128.327 266.295ZM130.706 266.293C130.55 266.293 130.425 266.168 130.425 266.012C130.425 265.857 130.55 265.732 130.706 265.732L131.685 265.729C131.841 265.729 131.966 265.854 131.966 266.01C131.966 266.165 131.841 266.29 131.685 266.29L130.706 266.293ZM133.085 266.287C132.929 266.287 132.804 266.162 132.804 266.007C132.804 265.851 132.929 265.727 133.085 265.727L134.064 265.724C134.22 265.724 134.345 265.849 134.345 266.004C134.345 266.16 134.22 266.284 134.064 266.284L133.085 266.287ZM135.461 266.284C135.305 266.284 135.18 266.16 135.18 266.004C135.18 265.849 135.305 265.724 135.461 265.724H136.44C136.596 265.724 136.721 265.849 136.721 266.004C136.721 266.16 136.596 266.284 136.44 266.284H135.461ZM137.84 266.282C137.684 266.282 137.559 266.157 137.559 266.001C137.559 265.846 137.684 265.721 137.84 265.721L138.819 265.718C138.975 265.718 139.1 265.843 139.1 265.999C139.1 266.154 138.975 266.279 138.819 266.279L137.84 266.282ZM140.218 266.279C140.063 266.279 139.937 266.154 139.937 265.999C139.937 265.843 140.063 265.718 140.218 265.718L141.198 265.715C141.354 265.715 141.479 265.84 141.479 265.996C141.479 266.151 141.354 266.276 141.198 266.276L140.218 266.279ZM142.455 265.81C142.391 265.81 142.327 265.788 142.274 265.743C142.155 265.643 142.141 265.469 142.241 265.349C142.4 265.163 142.486 264.925 142.486 264.68V264.628C142.486 264.472 142.611 264.347 142.767 264.347C142.923 264.347 143.048 264.472 143.048 264.625V264.678C143.048 265.055 142.914 265.421 142.67 265.707C142.614 265.777 142.536 265.81 142.455 265.81ZM110.685 265.413C110.568 265.413 110.457 265.338 110.418 265.222C110.365 265.061 110.34 264.894 110.337 264.725V264.164C110.337 264.009 110.463 263.884 110.618 263.884C110.774 263.884 110.899 264.009 110.899 264.164V264.725C110.899 264.836 110.916 264.944 110.952 265.047C111 265.194 110.922 265.352 110.774 265.399C110.744 265.41 110.713 265.413 110.685 265.413ZM142.764 263.512C142.608 263.512 142.483 263.387 142.483 263.232L142.48 262.255C142.48 262.1 142.606 261.975 142.761 261.975C142.917 261.975 143.042 262.1 143.042 262.255L143.045 263.232C143.045 263.387 142.92 263.512 142.764 263.512ZM110.616 263.049C110.46 263.049 110.335 262.924 110.335 262.768V261.792C110.335 261.636 110.46 261.511 110.616 261.511C110.771 261.511 110.897 261.636 110.897 261.792V262.768C110.897 262.924 110.771 263.049 110.616 263.049ZM142.761 261.139C142.606 261.139 142.48 261.015 142.48 260.859L142.478 259.882C142.478 259.727 142.603 259.602 142.759 259.602C142.914 259.602 143.04 259.727 143.04 259.882L143.042 260.859C143.042 261.015 142.914 261.139 142.761 261.139ZM110.613 260.679C110.457 260.679 110.332 260.554 110.332 260.399V259.422C110.332 259.266 110.457 259.141 110.613 259.141C110.769 259.141 110.894 259.266 110.894 259.422V260.399C110.894 260.551 110.769 260.679 110.613 260.679ZM142.756 258.77C142.6 258.77 142.475 258.645 142.475 258.489L142.472 257.512C142.472 257.357 142.597 257.232 142.753 257.232C142.909 257.232 143.034 257.357 143.034 257.512L143.037 258.489C143.037 258.642 142.912 258.767 142.756 258.77C142.759 258.77 142.759 258.77 142.756 258.77ZM110.61 258.306C110.454 258.306 110.329 258.181 110.329 258.026V257.049C110.329 256.894 110.454 256.769 110.61 256.769C110.766 256.769 110.891 256.894 110.891 257.049V258.026C110.891 258.181 110.766 258.306 110.61 258.306ZM142.753 256.397C142.597 256.397 142.472 256.272 142.472 256.117L142.469 255.14C142.469 254.984 142.594 254.86 142.75 254.86C142.906 254.86 143.031 254.984 143.031 255.14L143.034 256.117C143.034 256.272 142.909 256.397 142.753 256.397ZM110.607 255.933C110.451 255.933 110.326 255.809 110.326 255.653V254.676C110.326 254.521 110.451 254.396 110.607 254.396C110.763 254.396 110.888 254.521 110.888 254.676V255.653C110.885 255.809 110.76 255.933 110.607 255.933ZM142.75 254.024C142.594 254.024 142.469 253.899 142.469 253.744V252.767C142.469 252.612 142.594 252.487 142.75 252.487C142.906 252.487 143.031 252.612 143.031 252.767V253.744C143.031 253.899 142.906 254.024 142.75 254.024ZM110.602 253.564C110.446 253.564 110.321 253.439 110.321 253.283V252.307C110.321 252.151 110.446 252.026 110.602 252.026C110.757 252.026 110.883 252.151 110.883 252.307V253.283C110.883 253.436 110.757 253.564 110.602 253.564ZM142.747 251.654C142.592 251.654 142.466 251.529 142.466 251.374V250.397C142.466 250.242 142.592 250.117 142.747 250.117C142.903 250.117 143.028 250.242 143.028 250.397V251.374C143.028 251.527 142.903 251.652 142.747 251.654ZM110.599 251.191C110.443 251.191 110.318 251.066 110.318 250.911V249.934C110.318 249.778 110.443 249.654 110.599 249.654C110.755 249.654 110.88 249.778 110.88 249.934V250.911C110.88 251.066 110.755 251.191 110.599 251.191ZM142.745 249.282C142.589 249.282 142.464 249.157 142.464 249.001L142.461 248.025C142.461 247.869 142.586 247.744 142.742 247.744C142.898 247.744 143.023 247.869 143.023 248.025V249.001C143.023 249.157 142.898 249.282 142.745 249.282ZM110.596 248.818C110.44 248.818 110.315 248.693 110.315 248.538V247.561C110.315 247.406 110.44 247.281 110.596 247.281C110.752 247.281 110.877 247.406 110.877 247.561V248.538C110.877 248.693 110.752 248.818 110.596 248.818ZM142.739 246.909C142.583 246.909 142.458 246.784 142.458 246.629V245.652C142.458 245.497 142.583 245.372 142.739 245.372C142.895 245.372 143.02 245.497 143.02 245.652V246.629C143.02 246.784 142.895 246.909 142.739 246.909ZM110.593 246.448C110.438 246.448 110.312 246.324 110.312 246.168V245.191C110.312 245.036 110.438 244.911 110.593 244.911C110.749 244.911 110.874 245.036 110.874 245.191L110.877 246.168C110.872 246.324 110.746 246.448 110.593 246.448ZM142.736 244.539C142.581 244.539 142.455 244.414 142.455 244.259V243.951C142.455 243.773 142.408 243.601 142.325 243.449C142.249 243.313 142.297 243.143 142.433 243.068C142.569 242.993 142.739 243.041 142.814 243.177C142.948 243.412 143.017 243.682 143.017 243.954V244.262C143.017 244.412 142.892 244.539 142.736 244.539ZM110.604 244.076C110.591 244.076 110.577 244.076 110.563 244.073C110.41 244.051 110.304 243.906 110.326 243.754C110.385 243.36 110.591 243.002 110.905 242.752C111.025 242.655 111.203 242.674 111.3 242.794C111.397 242.913 111.378 243.091 111.258 243.188C111.055 243.351 110.922 243.582 110.883 243.84C110.86 243.979 110.741 244.076 110.604 244.076ZM111.907 242.96C111.751 242.96 111.626 242.835 111.626 242.68C111.626 242.524 111.751 242.4 111.907 242.4L112.886 242.397C113.042 242.397 113.167 242.522 113.167 242.677C113.167 242.832 113.042 242.957 112.886 242.957L111.907 242.96ZM114.283 242.955C114.127 242.955 114.002 242.83 114.002 242.674C114.002 242.519 114.127 242.394 114.283 242.394L115.262 242.391C115.418 242.391 115.543 242.516 115.543 242.672C115.543 242.827 115.418 242.952 115.262 242.952L114.283 242.955ZM116.661 242.952C116.506 242.952 116.38 242.827 116.38 242.672C116.38 242.516 116.506 242.391 116.661 242.391L117.641 242.389C117.797 242.389 117.922 242.513 117.922 242.669C117.922 242.824 117.797 242.949 117.641 242.949L116.661 242.952ZM119.04 242.949C118.884 242.949 118.759 242.824 118.759 242.669C118.759 242.513 118.884 242.389 119.04 242.389L120.02 242.386C120.175 242.386 120.301 242.511 120.301 242.666C120.301 242.821 120.175 242.946 120.02 242.946L119.04 242.949ZM121.416 242.946C121.26 242.946 121.135 242.821 121.135 242.666C121.135 242.511 121.26 242.386 121.416 242.386L122.396 242.383C122.551 242.383 122.677 242.508 122.677 242.663C122.677 242.819 122.551 242.944 122.396 242.944L121.416 242.946ZM123.795 242.944C123.639 242.944 123.514 242.819 123.514 242.663C123.514 242.508 123.639 242.383 123.795 242.383L124.774 242.38C124.93 242.38 125.055 242.505 125.055 242.66C125.055 242.816 124.93 242.941 124.774 242.941L123.795 242.944ZM126.174 242.938C126.018 242.938 125.893 242.813 125.893 242.658C125.893 242.502 126.018 242.377 126.174 242.377L127.153 242.375C127.309 242.375 127.434 242.499 127.434 242.655C127.434 242.81 127.309 242.935 127.153 242.935L126.174 242.938ZM128.55 242.935C128.394 242.935 128.269 242.81 128.269 242.655C128.269 242.499 128.394 242.375 128.55 242.375L129.529 242.372C129.685 242.372 129.81 242.497 129.81 242.652C129.81 242.808 129.685 242.932 129.529 242.932L128.55 242.935ZM130.929 242.932C130.773 242.932 130.648 242.808 130.648 242.652C130.648 242.497 130.773 242.372 130.929 242.372L131.908 242.369C132.064 242.369 132.189 242.494 132.189 242.649C132.189 242.805 132.064 242.93 131.908 242.93L130.929 242.932ZM133.305 242.93C133.149 242.93 133.024 242.805 133.024 242.649C133.024 242.494 133.149 242.369 133.305 242.369L134.284 242.366C134.44 242.366 134.565 242.491 134.565 242.647C134.565 242.802 134.44 242.927 134.284 242.927L133.305 242.93C133.307 242.93 133.305 242.93 133.305 242.93ZM135.683 242.924C135.528 242.924 135.402 242.799 135.402 242.644C135.402 242.488 135.528 242.364 135.683 242.364L136.663 242.361C136.819 242.361 136.944 242.486 136.944 242.641C136.944 242.796 136.819 242.921 136.663 242.921L135.683 242.924ZM138.062 242.921C137.906 242.921 137.781 242.796 137.781 242.641C137.781 242.486 137.906 242.361 138.062 242.361L139.042 242.358C139.197 242.358 139.323 242.483 139.323 242.638C139.323 242.794 139.197 242.919 139.042 242.919L138.062 242.921ZM140.438 242.919C140.282 242.919 140.157 242.794 140.157 242.638C140.157 242.483 140.282 242.358 140.438 242.358H141.415L141.418 242.919H140.438C140.441 242.919 140.438 242.919 140.438 242.919Z" fill="#4E1E61"/>
<path d="M140.775 244.597L112.552 244.637L112.58 264.082L140.803 264.042L140.775 244.597Z" fill="#8A519D"/>
<path d="M112.552 244.636L112.555 245.882L126.683 258.337L140.775 245.843V244.597L126.683 257.132L112.552 244.636Z" fill="#4E1E61"/>
<path d="M129.396 254.674L139.985 264.042L140.803 264.039V263.545L130.005 253.994L129.396 254.674Z" fill="#4E1E61"/>
<path d="M112.58 263.651V264.081L113.473 264.078L124.034 254.682L123.425 254.002L112.58 263.651Z" fill="#4E1E61"/>
<path d="M140.775 244.595L126.683 257.132L112.552 244.636L140.775 244.595Z" fill="#8A519D"/>
<path d="M144.111 249.02C146.417 246.719 146.417 242.989 144.111 240.688C141.804 238.387 138.064 238.387 135.757 240.688C133.451 242.989 133.451 246.719 135.757 249.02C138.064 251.32 141.804 251.32 144.111 249.02Z" fill="#C78FE8"/>
<path d="M138.727 247.656C138.574 247.656 138.429 247.595 138.321 247.489L136.874 246.046C136.652 245.824 136.652 245.461 136.874 245.238C137.097 245.016 137.461 245.016 137.684 245.238L138.727 246.279L142.789 242.228C143.012 242.006 143.376 242.006 143.599 242.228C143.821 242.45 143.821 242.813 143.599 243.035L139.131 247.492C139.025 247.595 138.877 247.656 138.727 247.656Z" fill="white"/>
<path d="M285.178 167.571H216.871V216.847C216.871 218.393 218.126 219.644 219.676 219.644H282.373C283.923 219.644 285.178 218.393 285.178 216.847V167.571Z" fill="white"/>
<path d="M285.178 166.363V172.224H216.93V166.363C216.93 164.787 218.21 163.511 219.79 163.511H282.318C283.898 163.511 285.178 164.787 285.178 166.363Z" fill="#270A04"/>
<path d="M273.406 167.449C273.406 168.289 272.722 168.972 271.879 168.972C271.036 168.972 270.351 168.289 270.351 167.449C270.351 166.608 271.036 165.925 271.879 165.925C272.722 165.925 273.406 166.608 273.406 167.449Z" fill="white"/>
<path d="M278.353 167.449C278.353 168.289 277.669 168.972 276.826 168.972C275.983 168.972 275.298 168.289 275.298 167.449C275.298 166.608 275.983 165.925 276.826 165.925C277.669 165.925 278.353 166.608 278.353 167.449Z" fill="#8A519D"/>
<path d="M283.088 167.449C283.088 168.289 282.404 168.972 281.561 168.972C280.718 168.972 280.033 168.289 280.033 167.449C280.033 166.608 280.718 165.925 281.561 165.925C282.407 165.925 283.088 166.608 283.088 167.449Z" fill="#C78FE8"/>
<path d="M264.089 178.579H260.377V182.281H264.089V178.579Z" fill="#8A519D"/>
<path d="M264.089 185.175H260.377V188.877H264.089V185.175Z" fill="#C78FE8"/>
<path d="M280.02 185.983H267.7C267.066 185.983 266.554 186.449 266.554 187.026C266.554 187.601 267.068 188.07 267.7 188.07H280.02C280.654 188.07 281.166 187.604 281.166 187.026C281.166 186.449 280.654 185.983 280.02 185.983Z" fill="#F0D2FF"/>
<path d="M280.02 179.387H267.7C267.066 179.387 266.554 179.853 266.554 180.43C266.554 181.005 267.068 181.474 267.7 181.474H280.02C280.654 181.474 281.166 181.007 281.166 180.43C281.166 179.853 280.654 179.387 280.02 179.387Z" fill="#F0D2FF"/>
<path d="M260.435 207.484C260.435 208.058 260.903 208.527 261.482 208.527H280.017C280.593 208.527 281.063 208.061 281.063 207.484C281.063 206.91 280.595 206.441 280.017 206.441H261.482C260.906 206.441 260.435 206.907 260.435 207.484Z" fill="#F0D2FF"/>
<path d="M260.416 203.294C260.416 203.868 260.883 204.337 261.462 204.337H279.997C280.573 204.337 281.043 203.871 281.043 203.294C281.043 202.719 280.576 202.25 279.997 202.25H261.462C260.886 202.253 260.416 202.719 260.416 203.294Z" fill="#F0D2FF"/>
<path d="M260.397 199.106C260.397 199.681 260.864 200.15 261.443 200.15H279.978C280.554 200.15 281.024 199.683 281.024 199.106C281.024 198.532 280.557 198.063 279.978 198.063H261.443C260.867 198.063 260.397 198.532 260.397 199.106Z" fill="#F0D2FF"/>
<path d="M260.377 194.919C260.377 195.493 260.844 195.962 261.423 195.962H279.958C280.534 195.962 281.004 195.496 281.004 194.919C281.004 194.344 280.537 193.875 279.958 193.875H261.423C260.847 193.875 260.377 194.341 260.377 194.919Z" fill="#F0D2FF"/>
<path d="M252.562 194.744C252.562 202.359 246.374 208.527 238.742 208.527C231.108 208.527 224.923 202.359 224.923 194.744C224.923 192.857 225.304 191.056 225.994 189.416L238.745 194.744L238.091 180.977C238.306 180.963 238.525 180.96 238.745 180.96C246.374 180.96 252.562 187.132 252.562 194.744Z" fill="#C78FE8"/>
<path d="M236.839 178.804C232.711 178.995 229.058 180.993 226.654 184.024C225.88 184.998 225.238 186.08 224.748 187.243L237.496 192.568L236.839 178.804Z" fill="#8A519D"/>
<path d="M128.13 225.508H127.331C127.148 225.508 127 225.361 127 225.178C127 224.995 127.148 224.847 127.331 224.847H128.13C128.238 224.847 128.349 224.842 128.458 224.834C128.639 224.82 128.8 224.953 128.817 225.136C128.831 225.316 128.697 225.477 128.514 225.491C128.388 225.502 128.258 225.508 128.13 225.508ZM125.681 225.508H124.527C124.343 225.508 124.196 225.361 124.196 225.178C124.196 224.995 124.343 224.847 124.527 224.847H125.681C125.865 224.847 126.012 224.995 126.012 225.178C126.012 225.361 125.862 225.508 125.681 225.508ZM122.871 225.508H121.717C121.533 225.508 121.386 225.361 121.386 225.178C121.386 224.995 121.533 224.847 121.717 224.847H122.871C123.055 224.847 123.202 224.995 123.202 225.178C123.202 225.361 123.055 225.508 122.871 225.508ZM120.064 225.508H118.909C118.726 225.508 118.578 225.361 118.578 225.178C118.578 224.995 118.726 224.847 118.909 224.847H120.064C120.248 224.847 120.395 224.995 120.395 225.178C120.395 225.361 120.248 225.508 120.064 225.508ZM117.257 225.508H116.102C115.919 225.508 115.771 225.361 115.771 225.178C115.771 224.995 115.919 224.847 116.102 224.847H117.257C117.44 224.847 117.588 224.995 117.588 225.178C117.588 225.361 117.44 225.508 117.257 225.508ZM114.449 225.508H113.295C113.111 225.508 112.964 225.361 112.964 225.178C112.964 224.995 113.111 224.847 113.295 224.847H114.449C114.633 224.847 114.781 224.995 114.781 225.178C114.781 225.361 114.633 225.508 114.449 225.508ZM111.642 225.508H111.626C111.208 225.508 110.794 225.452 110.396 225.341C110.221 225.291 110.118 225.111 110.165 224.934C110.215 224.759 110.396 224.656 110.574 224.703C110.916 224.798 111.269 224.847 111.626 224.847H111.642C111.826 224.847 111.973 224.995 111.973 225.178C111.973 225.361 111.826 225.508 111.642 225.508ZM130.063 225.042C129.944 225.042 129.827 224.975 129.768 224.861C129.685 224.7 129.749 224.501 129.91 224.417C130.227 224.256 130.52 224.051 130.781 223.81C130.915 223.685 131.123 223.693 131.249 223.829C131.374 223.962 131.365 224.173 131.229 224.295C130.923 224.578 130.581 224.817 130.211 225.006C130.166 225.031 130.116 225.042 130.063 225.042ZM109.019 224.614C108.946 224.614 108.877 224.592 108.815 224.545C108.487 224.29 108.195 223.99 107.95 223.657C107.842 223.51 107.872 223.305 108.02 223.196C108.167 223.088 108.373 223.119 108.482 223.266C108.693 223.552 108.943 223.807 109.224 224.026C109.369 224.137 109.394 224.345 109.283 224.49C109.216 224.57 109.119 224.614 109.019 224.614ZM131.975 223.06C131.927 223.06 131.88 223.049 131.836 223.03C131.669 222.952 131.599 222.755 131.674 222.591C131.824 222.269 131.93 221.931 131.989 221.578C132.019 221.398 132.186 221.276 132.37 221.307C132.551 221.337 132.673 221.506 132.642 221.687C132.576 222.097 132.453 222.494 132.275 222.872C132.22 222.991 132.1 223.06 131.975 223.06ZM107.513 222.311C107.366 222.311 107.23 222.211 107.193 222.061C107.102 221.701 107.054 221.326 107.054 220.949V220.84C107.054 220.657 107.202 220.51 107.385 220.51C107.569 220.51 107.717 220.657 107.717 220.84V220.949C107.717 221.27 107.755 221.592 107.833 221.9C107.878 222.078 107.769 222.256 107.594 222.3C107.566 222.308 107.538 222.311 107.513 222.311ZM132.37 220.319C132.186 220.319 132.039 220.172 132.039 219.988V218.837C132.039 218.654 132.186 218.506 132.37 218.506C132.553 218.506 132.701 218.654 132.701 218.837V219.988C132.701 220.172 132.553 220.319 132.37 220.319ZM107.385 219.522C107.202 219.522 107.054 219.375 107.054 219.192V218.038C107.054 217.854 107.202 217.707 107.385 217.707C107.569 217.707 107.717 217.854 107.717 218.038V219.192C107.717 219.375 107.569 219.522 107.385 219.522ZM132.37 217.519C132.186 217.519 132.039 217.372 132.039 217.188V216.037C132.039 215.854 132.186 215.706 132.37 215.706C132.553 215.706 132.701 215.854 132.701 216.037V217.188C132.701 217.372 132.553 217.519 132.37 217.519ZM107.385 216.722C107.202 216.722 107.054 216.575 107.054 216.392V215.24C107.054 215.057 107.202 214.91 107.385 214.91C107.569 214.91 107.717 215.057 107.717 215.24V216.392C107.717 216.575 107.569 216.722 107.385 216.722ZM132.37 214.719C132.186 214.719 132.039 214.571 132.039 214.388V213.234C132.039 213.051 132.186 212.904 132.37 212.904C132.553 212.904 132.701 213.051 132.701 213.234V214.388C132.701 214.571 132.553 214.719 132.37 214.719ZM107.385 213.922C107.202 213.922 107.054 213.775 107.054 213.592V212.44C107.054 212.257 107.202 212.11 107.385 212.11C107.569 212.11 107.717 212.257 107.717 212.44V213.592C107.717 213.775 107.569 213.922 107.385 213.922ZM132.37 211.919C132.186 211.919 132.039 211.771 132.039 211.588V210.437C132.039 210.254 132.186 210.106 132.37 210.106C132.553 210.106 132.701 210.254 132.701 210.437V211.588C132.701 211.771 132.553 211.919 132.37 211.919ZM107.385 211.122C107.202 211.122 107.054 210.975 107.054 210.792V209.637C107.054 209.454 107.202 209.307 107.385 209.307C107.569 209.307 107.717 209.454 107.717 209.637V210.792C107.717 210.975 107.569 211.122 107.385 211.122ZM132.37 209.119C132.186 209.119 132.039 208.971 132.039 208.788V207.634C132.039 207.451 132.186 207.304 132.37 207.304C132.553 207.304 132.701 207.451 132.701 207.634V208.788C132.701 208.971 132.553 209.119 132.37 209.119ZM107.385 208.322C107.202 208.322 107.054 208.175 107.054 207.992V206.837C107.054 206.654 107.202 206.507 107.385 206.507C107.569 206.507 107.717 206.654 107.717 206.837V207.992C107.717 208.175 107.569 208.322 107.385 208.322ZM132.37 206.319C132.186 206.319 132.039 206.171 132.039 205.988V204.834C132.039 204.651 132.186 204.504 132.37 204.504C132.553 204.504 132.701 204.651 132.701 204.834V205.988C132.701 206.169 132.553 206.319 132.37 206.319ZM107.385 205.522C107.202 205.522 107.054 205.375 107.054 205.192V204.487C107.054 204.326 107.063 204.162 107.079 204.004C107.099 203.824 107.26 203.691 107.444 203.71C107.625 203.729 107.758 203.893 107.739 204.074C107.725 204.209 107.717 204.348 107.717 204.487V205.192C107.717 205.372 107.569 205.522 107.385 205.522ZM132.172 203.538C132.033 203.538 131.902 203.449 131.858 203.308C131.749 202.969 131.596 202.65 131.402 202.353C131.301 202.2 131.343 201.995 131.496 201.895C131.649 201.795 131.855 201.837 131.955 201.989C132.183 202.336 132.364 202.714 132.489 203.108C132.545 203.283 132.448 203.469 132.275 203.521C132.239 203.532 132.206 203.538 132.172 203.538ZM107.895 202.808C107.842 202.808 107.786 202.794 107.736 202.769C107.575 202.683 107.516 202.481 107.602 202.322C107.8 201.959 108.048 201.623 108.337 201.323C108.465 201.193 108.674 201.19 108.804 201.315C108.935 201.443 108.938 201.651 108.813 201.781C108.565 202.037 108.354 202.325 108.184 202.636C108.126 202.744 108.011 202.808 107.895 202.808ZM130.528 201.332C130.464 201.332 130.397 201.312 130.342 201.274C130.047 201.071 129.729 200.913 129.393 200.796C129.22 200.738 129.128 200.549 129.187 200.377C129.245 200.205 129.435 200.114 129.607 200.172C129.999 200.305 130.372 200.494 130.717 200.73C130.867 200.832 130.906 201.038 130.803 201.187C130.737 201.282 130.634 201.332 130.528 201.332ZM109.923 200.943C109.795 200.943 109.675 200.868 109.62 200.746C109.547 200.58 109.622 200.385 109.789 200.311C110.17 200.144 110.571 200.03 110.986 199.972C111.166 199.947 111.333 200.072 111.358 200.252C111.383 200.433 111.258 200.599 111.077 200.624C110.724 200.674 110.382 200.771 110.056 200.913C110.012 200.935 109.967 200.943 109.923 200.943ZM127.874 200.588H126.719C126.535 200.588 126.388 200.441 126.388 200.258C126.388 200.075 126.535 199.928 126.719 199.928H127.874C128.057 199.928 128.205 200.075 128.205 200.258C128.205 200.441 128.057 200.588 127.874 200.588ZM125.066 200.588H123.909C123.725 200.588 123.578 200.441 123.578 200.258C123.578 200.075 123.725 199.928 123.909 199.928H125.066C125.25 199.928 125.398 200.075 125.398 200.258C125.398 200.441 125.25 200.588 125.066 200.588ZM122.259 200.588H121.102C120.918 200.588 120.771 200.441 120.771 200.258C120.771 200.075 120.918 199.928 121.102 199.928H122.259C122.443 199.928 122.59 200.075 122.59 200.258C122.59 200.441 122.443 200.588 122.259 200.588ZM119.452 200.588H118.297C118.114 200.588 117.966 200.441 117.966 200.258C117.966 200.075 118.114 199.928 118.297 199.928H119.452C119.636 199.928 119.783 200.075 119.783 200.258C119.783 200.441 119.636 200.588 119.452 200.588ZM116.645 200.588H115.49C115.306 200.588 115.159 200.441 115.159 200.258C115.159 200.075 115.306 199.928 115.49 199.928H116.645C116.828 199.928 116.976 200.075 116.976 200.258C116.976 200.441 116.826 200.588 116.645 200.588ZM113.837 200.588H112.68C112.496 200.588 112.349 200.441 112.349 200.258C112.349 200.075 112.496 199.928 112.68 199.928H113.837C114.021 199.928 114.168 200.075 114.168 200.258C114.168 200.441 114.018 200.588 113.837 200.588Z" fill="#C78FE8"/>
<path d="M128.13 222.866H111.626C110.563 222.866 109.703 222.009 109.703 220.949V204.487C109.703 203.427 110.563 202.569 111.626 202.569H128.13C129.192 202.569 130.052 203.427 130.052 204.487V220.949C130.052 222.009 129.192 222.866 128.13 222.866Z" fill="#C78FE8"/>
<path d="M125.634 208.539C125.601 208.4 125.567 208.258 125.534 208.12C125.411 207.626 125.175 207.193 124.844 206.807C124.605 206.532 124.329 206.296 124.018 206.119C123.586 205.872 123.099 205.977 122.782 206.36C122.215 207.043 121.65 207.728 121.091 208.416C120.746 208.838 120.804 209.418 121.23 209.796C121.536 210.065 121.856 210.317 122.173 210.573C122.215 210.606 122.262 210.631 122.295 210.653C121.544 212.671 120.267 214.23 118.436 215.354C118.214 215.171 117.983 214.977 117.749 214.785C117.63 214.688 117.513 214.588 117.388 214.494C117.02 214.214 116.592 214.186 116.211 214.433C116.088 214.51 115.991 214.63 115.896 214.741C115.384 215.357 114.878 215.981 114.366 216.597C114.202 216.792 114.099 217.008 114.063 217.258C114.071 217.349 114.082 217.441 114.091 217.532C114.18 217.688 114.241 217.871 114.363 217.99C114.664 218.287 114.995 218.556 115.387 218.731C115.849 218.939 116.33 219.064 116.834 219.02C117.168 218.989 117.499 218.92 117.822 218.831C118.651 218.601 119.405 218.207 120.117 217.727C120.821 217.252 121.461 216.703 122.051 216.095C122.846 215.274 123.55 214.377 124.19 213.431C124.694 212.684 125.13 211.902 125.411 211.044C125.553 210.611 125.648 210.17 125.679 209.715C125.69 209.532 125.695 209.349 125.704 209.166C125.676 208.958 125.656 208.749 125.634 208.539Z" fill="white"/>
<path d="M235.359 236.93V284.528C235.359 287.086 237.44 289.162 240.006 289.162H277.799C280.365 289.162 282.446 287.086 282.446 284.528V236.93H235.359Z" fill="white"/>
<path d="M251.212 272.356H246.636V283.39H251.212V272.356Z" fill="#C78FE8"/>
<path d="M257.965 264.522H253.388V283.393H257.965V264.522Z" fill="#8A519D"/>
<path d="M265.441 258.739H260.864V283.39H265.441V258.739Z" fill="#4E1E61"/>
<path d="M272.766 251.954H268.19V283.39H272.766V251.954Z" fill="#8A519D"/>
<path d="M264.328 247.12L267.502 248.283L267.138 244.575L264.328 247.12Z" fill="#C78FE8"/>
<path d="M245.375 267C245.236 267 245.105 266.914 245.053 266.778C244.986 266.601 245.078 266.404 245.253 266.337C245.392 266.284 259.167 261.02 265.889 246.87C265.969 246.698 266.175 246.626 266.345 246.706C266.517 246.787 266.59 246.992 266.509 247.162C259.665 261.572 245.634 266.925 245.495 266.978C245.456 266.992 245.417 267 245.375 267Z" fill="#C78FE8"/>
<path d="M282.443 235.173V241.598H235.359V235.173C235.359 233.894 236.4 232.856 237.682 232.856H280.122C281.402 232.856 282.443 233.894 282.443 235.173Z" fill="#270A04"/>
<path d="M271.041 236.805C271.041 237.649 270.357 238.331 269.511 238.331C268.665 238.331 267.981 237.649 267.981 236.805C267.981 235.962 268.665 235.279 269.511 235.279C270.357 235.279 271.041 235.962 271.041 236.805Z" fill="white"/>
<path d="M274.472 238.331C275.317 238.331 276.002 237.648 276.002 236.805C276.002 235.962 275.317 235.279 274.472 235.279C273.627 235.279 272.942 235.962 272.942 236.805C272.942 237.648 273.627 238.331 274.472 238.331Z" fill="#8A519D"/>
<path d="M280.754 236.805C280.754 237.649 280.07 238.331 279.224 238.331C278.378 238.331 277.694 237.649 277.694 236.805C277.694 235.962 278.378 235.279 279.224 235.279C280.067 235.279 280.754 235.962 280.754 236.805Z" fill="#C78FE8"/>
<path d="M135.561 166.838L129.042 166.86C128.299 166.863 127.698 167.465 127.701 168.206L127.762 185.633C127.765 186.785 128.706 187.715 129.857 187.709L152.719 187.631C153.417 187.629 153.979 187.063 153.979 186.366L153.924 170.135C153.921 169.533 153.431 169.044 152.825 169.047L139.489 169.094L135.561 166.838Z" fill="#4E1E61"/>
<path d="M153.979 186.366L153.94 175.094L127.726 175.185L127.765 186.458C127.768 187.154 128.336 187.715 129.034 187.715L152.722 187.634C153.42 187.629 153.982 187.063 153.979 186.366Z" fill="#8A519D"/>
<path d="M129.176 172.813L129.184 175.18L152.402 175.099L152.393 172.732C152.391 172.235 151.984 171.833 151.486 171.833L130.077 171.908C129.579 171.908 129.176 172.313 129.176 172.813Z" fill="white"/>
<path d="M150.429 173.534L150.435 175.108L149.416 175.11L149.411 173.537C149.411 173.257 149.639 173.029 149.917 173.026C150.198 173.026 150.429 173.254 150.429 173.534Z" fill="#F0D2FF"/>
<path d="M148.131 173.54L148.137 175.113L147.118 175.116L147.113 173.543C147.113 173.262 147.341 173.035 147.619 173.032C147.9 173.035 148.131 173.262 148.131 173.54Z" fill="#F0D2FF"/>
<path d="M145.833 173.548L145.839 175.122L144.82 175.124L144.815 173.551C144.815 173.271 145.043 173.043 145.321 173.04C145.602 173.043 145.833 173.271 145.833 173.548Z" fill="#F0D2FF"/>
<path d="M143.535 173.556L143.54 175.13L142.522 175.133L142.517 173.559C142.517 173.279 142.745 173.051 143.023 173.049C143.304 173.049 143.535 173.279 143.535 173.556Z" fill="#F0D2FF"/>
<path d="M141.237 173.565L141.242 175.138L140.224 175.141L140.218 173.567C140.218 173.287 140.447 173.06 140.725 173.057C141.006 173.057 141.237 173.284 141.237 173.565Z" fill="#F0D2FF"/>
<path d="M138.939 173.573L138.944 175.146L137.926 175.149L137.92 173.576C137.92 173.296 138.148 173.068 138.427 173.065C138.708 173.065 138.939 173.293 138.939 173.573Z" fill="#F0D2FF"/>
<path d="M136.64 173.581L136.646 175.155L135.628 175.158L135.622 173.584C135.622 173.304 135.85 173.076 136.129 173.074C136.41 173.074 136.64 173.301 136.64 173.581Z" fill="#F0D2FF"/>
<path d="M134.342 173.59L134.348 175.163L133.33 175.166L133.324 173.592C133.324 173.312 133.552 173.085 133.83 173.082C134.111 173.082 134.342 173.309 134.342 173.59Z" fill="#F0D2FF"/>
<path d="M132.044 173.598L132.05 175.171L131.032 175.174L131.026 173.601C131.026 173.321 131.254 173.093 131.532 173.09C131.813 173.09 132.044 173.318 132.044 173.598Z" fill="#F0D2FF"/>
<path d="M158.623 170.321C159.37 167.154 157.401 163.982 154.225 163.237C151.049 162.493 147.87 164.457 147.123 167.624C146.376 170.792 148.345 173.963 151.521 174.708C154.697 175.453 157.876 173.489 158.623 170.321Z" fill="#C78FE8"/>
<path d="M151.645 171.769C151.492 171.769 151.347 171.708 151.239 171.603L149.792 170.16C149.569 169.938 149.569 169.574 149.792 169.352C150.015 169.13 150.379 169.13 150.602 169.352L151.645 170.393L155.707 166.341C155.93 166.119 156.294 166.119 156.517 166.341C156.739 166.563 156.739 166.927 156.517 167.149L152.048 171.606C151.943 171.711 151.798 171.769 151.645 171.769Z" fill="white"/>
<path d="M194.742 186.324C194.605 186.324 194.491 186.213 194.491 186.077C194.491 185.941 194.6 185.83 194.733 185.83C195.151 185.83 195.551 185.75 195.93 185.595C196.055 185.542 196.2 185.603 196.252 185.728C196.305 185.853 196.244 185.997 196.119 186.05C195.682 186.233 195.22 186.324 194.742 186.324ZM193.412 186.324H192.087C191.951 186.324 191.84 186.213 191.84 186.077C191.84 185.941 191.951 185.83 192.087 185.83H193.412C193.548 185.83 193.659 185.941 193.659 186.077C193.657 186.213 193.548 186.324 193.412 186.324ZM190.763 186.324H189.439C189.302 186.324 189.191 186.213 189.191 186.077C189.191 185.941 189.302 185.83 189.439 185.83H190.763C190.899 185.83 191.011 185.941 191.011 186.077C191.011 186.213 190.899 186.324 190.763 186.324ZM188.114 186.324H186.79C186.654 186.324 186.542 186.213 186.542 186.077C186.542 185.941 186.654 185.83 186.79 185.83H188.114C188.251 185.83 188.362 185.941 188.362 186.077C188.362 186.213 188.251 186.324 188.114 186.324ZM185.466 186.324H184.141C184.005 186.324 183.894 186.213 183.894 186.077C183.894 185.941 184.005 185.83 184.141 185.83H185.466C185.602 185.83 185.713 185.941 185.713 186.077C185.713 186.213 185.602 186.324 185.466 186.324ZM182.817 186.324H181.493C181.356 186.324 181.245 186.213 181.245 186.077C181.245 185.941 181.356 185.83 181.493 185.83H182.817C182.953 185.83 183.065 185.941 183.065 186.077C183.065 186.213 182.953 186.324 182.817 186.324ZM180.171 186.324H178.847C178.71 186.324 178.599 186.213 178.599 186.077C178.599 185.941 178.71 185.83 178.847 185.83H180.171C180.307 185.83 180.419 185.941 180.419 186.077C180.416 186.213 180.305 186.324 180.171 186.324ZM177.522 186.324H177.509C177.03 186.324 176.563 186.233 176.123 186.05C175.998 185.997 175.939 185.853 175.989 185.728C176.042 185.603 176.187 185.542 176.312 185.595C176.691 185.753 177.094 185.833 177.509 185.833C177.645 185.833 177.762 185.944 177.762 186.08C177.762 186.213 177.659 186.324 177.522 186.324ZM197.118 185.339C197.054 185.339 196.992 185.314 196.942 185.267C196.845 185.17 196.845 185.015 196.942 184.92C197.235 184.629 197.463 184.287 197.621 183.91C197.674 183.785 197.816 183.724 197.944 183.777C198.069 183.83 198.13 183.971 198.078 184.099C197.897 184.537 197.632 184.931 197.293 185.27C197.246 185.317 197.182 185.339 197.118 185.339ZM175.127 185.336C175.063 185.336 175.002 185.311 174.952 185.264C174.615 184.926 174.351 184.532 174.17 184.093C174.117 183.968 174.178 183.824 174.303 183.771C174.429 183.719 174.573 183.78 174.626 183.905C174.782 184.285 175.01 184.623 175.302 184.917C175.397 185.015 175.397 185.17 175.302 185.264C175.252 185.311 175.188 185.336 175.127 185.336ZM198.103 182.961C197.966 182.961 197.855 182.85 197.855 182.714V181.393C197.855 181.257 197.966 181.146 198.103 181.146C198.239 181.146 198.35 181.257 198.35 181.393V182.714C198.35 182.853 198.239 182.961 198.103 182.961ZM174.148 182.955C174.011 182.955 173.9 182.844 173.9 182.708V181.388C173.9 181.252 174.011 181.141 174.148 181.141C174.284 181.141 174.395 181.252 174.395 181.388V182.708C174.392 182.844 174.284 182.955 174.148 182.955ZM198.103 180.319C197.966 180.319 197.855 180.208 197.855 180.072V178.751C197.855 178.615 197.966 178.504 198.103 178.504C198.239 178.504 198.35 178.615 198.35 178.751V180.072C198.35 180.211 198.239 180.319 198.103 180.319ZM174.148 180.314C174.011 180.314 173.9 180.203 173.9 180.067V178.746C173.9 178.61 174.011 178.499 174.148 178.499C174.284 178.499 174.395 178.61 174.395 178.746V180.067C174.392 180.205 174.284 180.314 174.148 180.314ZM198.103 177.68C197.966 177.68 197.855 177.569 197.855 177.433V176.112C197.855 175.976 197.966 175.865 198.103 175.865C198.239 175.865 198.35 175.976 198.35 176.112V177.433C198.35 177.569 198.239 177.68 198.103 177.68ZM174.148 177.672C174.011 177.672 173.9 177.561 173.9 177.425V176.104C173.9 175.968 174.011 175.857 174.148 175.857C174.284 175.857 174.395 175.968 174.395 176.104V177.425C174.392 177.564 174.284 177.672 174.148 177.672ZM198.103 175.038C197.966 175.038 197.855 174.927 197.855 174.791V173.47C197.855 173.334 197.966 173.223 198.103 173.223C198.239 173.223 198.35 173.334 198.35 173.47V174.791C198.35 174.927 198.239 175.038 198.103 175.038ZM174.148 175.03C174.011 175.03 173.9 174.919 173.9 174.783V173.462C173.9 173.326 174.011 173.215 174.148 173.215C174.284 173.215 174.395 173.326 174.395 173.462V174.783C174.392 174.922 174.284 175.03 174.148 175.03ZM198.103 172.396C197.966 172.396 197.855 172.285 197.855 172.149V170.829C197.855 170.693 197.966 170.582 198.103 170.582C198.239 170.582 198.35 170.693 198.35 170.829V172.149C198.35 172.285 198.239 172.396 198.103 172.396ZM174.148 172.391C174.011 172.391 173.9 172.28 173.9 172.144V170.823C173.9 170.687 174.011 170.576 174.148 170.576C174.284 170.576 174.395 170.687 174.395 170.823V172.144C174.392 172.28 174.284 172.391 174.148 172.391ZM198.103 169.755C197.966 169.755 197.855 169.644 197.855 169.508V168.187C197.855 168.051 197.966 167.94 198.103 167.94C198.239 167.94 198.35 168.051 198.35 168.187V169.508C198.35 169.644 198.239 169.755 198.103 169.755ZM174.148 169.749C174.011 169.749 173.9 169.638 173.9 169.502V168.181C173.9 168.045 174.011 167.934 174.148 167.934C174.284 167.934 174.395 168.045 174.395 168.181V169.502C174.392 169.638 174.284 169.749 174.148 169.749ZM198.103 167.113C197.966 167.113 197.855 167.002 197.855 166.866V165.545C197.855 165.409 197.966 165.298 198.103 165.298C198.239 165.298 198.35 165.409 198.35 165.545V166.866C198.35 167.002 198.239 167.113 198.103 167.113ZM174.148 167.107C174.011 167.107 173.9 166.996 173.9 166.86V165.539C173.9 165.403 174.011 165.292 174.148 165.292C174.284 165.292 174.395 165.403 174.395 165.539V166.86C174.392 166.996 174.284 167.107 174.148 167.107ZM197.849 164.504C197.752 164.504 197.66 164.446 197.621 164.352C197.463 163.971 197.237 163.633 196.942 163.341C196.845 163.244 196.845 163.089 196.942 162.995C197.04 162.897 197.196 162.897 197.29 162.995C197.63 163.333 197.891 163.727 198.075 164.166C198.128 164.291 198.066 164.435 197.941 164.488C197.913 164.499 197.88 164.504 197.849 164.504ZM174.404 164.499C174.373 164.499 174.34 164.493 174.309 164.479C174.184 164.427 174.123 164.282 174.175 164.157C174.359 163.719 174.623 163.325 174.963 162.989C175.06 162.892 175.216 162.895 175.311 162.989C175.408 163.086 175.405 163.242 175.311 163.336C175.018 163.627 174.79 163.966 174.632 164.346C174.59 164.443 174.498 164.499 174.404 164.499ZM196.024 162.684C195.994 162.684 195.96 162.678 195.93 162.664C195.551 162.509 195.151 162.428 194.742 162.428C194.605 162.428 194.491 162.317 194.491 162.181C194.491 162.046 194.597 161.935 194.733 161.935H194.739C195.215 161.935 195.679 162.026 196.116 162.206C196.241 162.259 196.302 162.403 196.25 162.528C196.213 162.628 196.122 162.684 196.024 162.684ZM176.232 162.681C176.134 162.681 176.042 162.623 176.003 162.528C175.951 162.403 176.012 162.259 176.137 162.206C176.574 162.026 177.033 161.937 177.509 161.937C177.645 161.937 177.762 162.048 177.762 162.184C177.762 162.32 177.659 162.431 177.522 162.431C177.1 162.431 176.702 162.509 176.326 162.664C176.293 162.675 176.262 162.681 176.232 162.681ZM193.412 162.431H192.087C191.951 162.431 191.84 162.32 191.84 162.184C191.84 162.048 191.951 161.937 192.087 161.937H193.412C193.548 161.937 193.659 162.048 193.659 162.184C193.657 162.32 193.548 162.431 193.412 162.431ZM190.763 162.431H189.439C189.302 162.431 189.191 162.32 189.191 162.184C189.191 162.048 189.302 161.937 189.439 161.937H190.763C190.899 161.937 191.011 162.048 191.011 162.184C191.008 162.32 190.899 162.431 190.763 162.431ZM188.114 162.431H186.79C186.654 162.431 186.542 162.32 186.542 162.184C186.542 162.048 186.654 161.937 186.79 161.937H188.114C188.251 161.937 188.362 162.048 188.362 162.184C188.362 162.32 188.251 162.431 188.114 162.431ZM185.466 162.431H184.141C184.005 162.431 183.894 162.32 183.894 162.184C183.894 162.048 184.005 161.937 184.141 161.937H185.466C185.602 161.937 185.713 162.048 185.713 162.184C185.713 162.32 185.602 162.431 185.466 162.431ZM182.817 162.431H181.493C181.356 162.431 181.245 162.32 181.245 162.184C181.245 162.048 181.356 161.937 181.493 161.937H182.817C182.953 161.937 183.065 162.048 183.065 162.184C183.065 162.32 182.953 162.431 182.817 162.431ZM180.168 162.431H178.844C178.708 162.431 178.596 162.32 178.596 162.184C178.596 162.048 178.708 161.937 178.844 161.937H180.168C180.305 161.937 180.416 162.048 180.416 162.184C180.416 162.32 180.305 162.431 180.168 162.431Z" fill="#8A519D"/>
<path d="M194.742 184.44H177.509C176.56 184.44 175.789 183.674 175.789 182.725V165.537C175.789 164.59 176.557 163.822 177.509 163.822H194.742C195.69 163.822 196.461 164.59 196.461 165.537V182.725C196.461 183.674 195.69 184.44 194.742 184.44Z" fill="#8A519D"/>
<path d="M192.73 173.742C192.73 176.315 191.286 177.647 189.558 177.647C188.546 177.647 187.806 177.256 187.427 176.476C187.049 177.217 186.403 177.647 185.377 177.647C183.919 177.647 182.517 176.368 182.517 174.295C182.517 172.222 183.88 170.956 185.377 170.956C186.092 170.956 186.645 171.187 187.038 171.617V171.078H189.628V174.927C189.628 175.493 189.859 175.668 190.154 175.668C190.532 175.668 190.841 175.291 190.841 173.784C190.841 171.347 189.019 169.624 186.239 169.624C183.474 169.624 181.612 171.561 181.612 174.12C181.612 176.759 183.435 178.64 186.186 178.64C187.077 178.64 187.995 178.465 188.913 178.049L189.48 179.706C188.671 180.097 187.388 180.352 186.186 180.352C182.124 180.352 179.52 177.647 179.52 174.123C179.52 170.651 182.124 167.917 186.239 167.917C190.126 167.915 192.73 170.509 192.73 173.742ZM187.091 174.295C187.091 173.487 186.673 173.071 186.12 173.071C185.566 173.071 185.162 173.487 185.162 174.295C185.162 175.116 185.566 175.532 186.12 175.532C186.67 175.532 187.091 175.116 187.091 174.295Z" fill="white"/>
<path d="M147.984 423.169C214.722 423.169 268.824 419.121 268.824 414.127C268.824 409.134 214.722 405.086 147.984 405.086C81.2454 405.086 27.1434 409.134 27.1434 414.127C27.1434 419.121 81.2454 423.169 147.984 423.169Z" fill="#E5BF9E"/>
<path d="M241.06 416.397C241.224 416.397 241.391 416.367 241.55 416.303C242.24 416.031 242.579 415.254 242.307 414.569L215.472 346.566C215.199 345.878 214.42 345.54 213.733 345.812C213.043 346.083 212.704 346.858 212.976 347.546L239.811 415.548C240.02 416.076 240.526 416.397 241.06 416.397Z" fill="#00433B"/>
<path d="M169.96 416.398C170.495 416.398 171.001 416.076 171.21 415.548L198.044 347.546C198.317 346.858 197.977 346.081 197.287 345.812C196.597 345.542 195.818 345.878 195.548 346.567L168.714 414.569C168.441 415.257 168.781 416.034 169.471 416.303C169.629 416.367 169.796 416.398 169.96 416.398Z" fill="#00433B"/>
<path d="M182.375 384.934C182.522 384.934 182.672 384.909 182.817 384.859L223.476 370.645C224.175 370.401 224.545 369.638 224.3 368.939C224.055 368.242 223.29 367.873 222.589 368.117L181.93 382.331C181.231 382.575 180.861 383.338 181.106 384.038C181.304 384.59 181.821 384.934 182.375 384.934Z" fill="#00433B"/>
<path d="M228.646 384.934C229.199 384.934 229.72 384.59 229.912 384.038C230.157 383.341 229.789 382.575 229.088 382.331L188.429 368.117C187.73 367.873 186.963 368.239 186.718 368.939C186.473 369.635 186.84 370.401 187.541 370.645L228.201 384.859C228.348 384.909 228.498 384.934 228.646 384.934Z" fill="#00433B"/>
<path d="M190.908 416.397C191.072 416.397 191.236 416.367 191.397 416.303C192.087 416.031 192.427 415.254 192.154 414.569L165.32 346.566C165.047 345.878 164.268 345.54 163.581 345.812C162.891 346.083 162.551 346.858 162.824 347.546L189.659 415.548C189.867 416.076 190.374 416.397 190.908 416.397Z" fill="#00433B"/>
<path d="M119.808 416.398C120.342 416.398 120.849 416.076 121.057 415.548L147.892 347.546C148.164 346.858 147.825 346.081 147.135 345.812C146.445 345.542 145.666 345.878 145.396 346.567L118.562 414.569C118.289 415.257 118.628 416.034 119.318 416.303C119.477 416.367 119.644 416.398 119.808 416.398Z" fill="#00433B"/>
<path d="M132.225 384.934C132.373 384.934 132.523 384.909 132.67 384.859L173.33 370.645C174.028 370.401 174.398 369.638 174.153 368.939C173.908 368.242 173.143 367.873 172.442 368.117L131.783 382.331C131.084 382.575 130.714 383.338 130.959 384.038C131.151 384.59 131.669 384.934 132.225 384.934Z" fill="#00433B"/>
<path d="M178.496 384.934C179.05 384.934 179.567 384.59 179.762 384.038C180.007 383.341 179.64 382.575 178.939 382.331L138.279 368.117C137.581 367.873 136.813 368.239 136.568 368.939C136.323 369.635 136.691 370.401 137.392 370.645L178.051 384.859C178.199 384.909 178.349 384.934 178.496 384.934Z" fill="#00433B"/>
<path d="M123.776 348.711C123.776 348.711 180.355 381.005 216.262 354.883C217.692 353.845 219.089 352.713 220.447 351.481C220.914 351.059 221.379 350.623 221.835 350.177C252.448 320.337 213.413 272.473 213.413 272.473C212.395 272.9 211.385 273.333 210.38 273.78C210.024 273.935 209.668 274.093 209.315 274.252C153.412 299.396 123.776 348.711 123.776 348.711Z" fill="#006C60"/>
<path d="M220.21 291.704C224.879 301.033 230.006 314.995 227.917 328.509C226.097 340.284 221.838 348.789 216.262 354.883C217.692 353.845 219.089 352.713 220.447 351.481C224.798 345.293 227.689 337.675 229.077 328.687C230.023 322.573 229.62 315.874 227.883 308.776C226.498 303.112 224.267 297.187 221.248 291.157C216.348 281.372 210.917 274.457 210.381 273.78C210.024 273.935 209.668 274.093 209.315 274.252C209.334 274.326 209.371 274.396 209.423 274.46C209.479 274.532 215.133 281.555 220.21 291.704Z" fill="#00433B"/>
<path d="M202.518 301.292C202.518 301.292 213.438 330.937 203.044 344.321C192.649 357.703 168.617 364.06 133.803 343.794L202.518 301.292Z" fill="#00433B"/>
<path d="M183.14 205.406C183.552 211.916 185.813 221.207 189.158 230.045C193.623 241.856 200.017 252.856 206.488 255.334C217.806 259.666 223.593 251.643 223.593 251.643C206.875 254.976 206.101 236.888 207.259 223.357C208.416 209.823 204.685 199.176 194.758 198.276C187.906 197.655 184.976 201.287 183.821 203.596C183.304 204.634 183.14 205.406 183.14 205.406Z" fill="#270A04"/>
<path d="M183.14 205.406C183.552 211.916 185.813 221.207 189.158 230.045L199.686 231.607C199.686 231.607 204.418 220.629 199.469 211.927C195.768 205.419 187.839 203.679 183.819 203.599C183.304 204.634 183.14 205.406 183.14 205.406Z" fill="#FFAE41"/>
<path d="M166.586 254.155L166.519 254.646L166.421 255.281C166.352 255.717 166.274 256.164 166.193 256.613C166.037 257.512 165.854 258.428 165.662 259.344C165.272 261.176 164.819 263.015 164.318 264.844C163.333 268.513 162.131 272.137 160.754 275.686C160.053 277.457 159.324 279.216 158.548 280.953C157.758 282.682 156.937 284.4 156.058 286.082C155.846 286.506 155.615 286.922 155.393 287.341C155.165 287.758 154.95 288.182 154.714 288.593C154.244 289.417 153.787 290.25 153.292 291.054C153.047 291.46 152.811 291.87 152.56 292.273L151.804 293.474L151.614 293.774L151.52 293.924L151.495 293.963C151.489 293.974 151.473 293.996 151.486 293.977L151.525 293.921C151.587 293.843 151.623 293.793 151.673 293.743C151.703 293.705 151.748 293.666 151.765 293.649C151.87 293.56 151.823 293.624 151.717 293.716C151.481 293.915 150.955 294.254 150.329 294.576C149.7 294.903 148.96 295.234 148.176 295.55C146.598 296.183 144.842 296.768 143.031 297.307C141.217 297.845 139.342 298.339 137.436 298.797C135.53 299.252 133.597 299.69 131.644 300.093C127.737 300.897 123.773 301.616 119.783 302.271C117.788 302.604 115.788 302.918 113.787 303.212L110.785 303.642L109.288 303.853L107.828 304.05L109.005 317.614L110.63 317.523L112.218 317.423C113.275 317.351 114.327 317.267 115.379 317.184C117.482 317.015 119.585 316.826 121.689 316.615C125.896 316.185 130.105 315.672 134.337 315.02C138.574 314.368 142.82 313.591 147.168 312.517C149.347 311.975 151.548 311.357 153.843 310.538C154.992 310.127 156.163 309.667 157.396 309.095C158.628 308.515 159.917 307.846 161.352 306.833C162.076 306.312 162.832 305.715 163.645 304.877C163.842 304.674 164.054 304.438 164.254 304.205C164.463 303.953 164.666 303.706 164.874 303.414L165.103 303.093L165.222 302.92L165.459 302.576L166.41 301.197C166.725 300.737 167.025 300.265 167.331 299.799C167.952 298.869 168.53 297.917 169.12 296.971C169.415 296.499 169.691 296.013 169.977 295.536C170.258 295.056 170.547 294.579 170.817 294.09L171.633 292.633C171.902 292.145 172.156 291.651 172.42 291.163C172.951 290.183 173.435 289.184 173.939 288.193C174.913 286.195 175.845 284.178 176.702 282.13C178.41 278.031 179.907 273.852 181.164 269.581C181.785 267.442 182.336 265.28 182.831 263.085C183.076 261.986 183.309 260.881 183.518 259.752C183.621 259.189 183.718 258.617 183.813 258.034L183.949 257.141L184.013 256.672L184.086 256.1L166.586 254.155Z" fill="#FFAE41"/>
<path d="M156.461 298.647C156.614 298.677 156.778 298.636 156.901 298.525C157.107 298.336 157.12 298.017 156.931 297.812C154.6 295.272 152.341 293.508 152.246 293.435C152.026 293.266 151.709 293.305 151.537 293.524C151.364 293.743 151.403 294.06 151.626 294.232C151.648 294.248 153.915 296.022 156.188 298.494C156.264 298.578 156.361 298.628 156.461 298.647Z" fill="#EF772C"/>
<path d="M155.646 295.042C155.905 295.092 156.161 294.937 156.23 294.679C156.305 294.409 156.147 294.132 155.877 294.06C155.857 294.054 153.94 293.533 152.299 293.213C152.023 293.161 151.759 293.338 151.706 293.613C151.653 293.888 151.831 294.151 152.107 294.204C153.709 294.515 155.59 295.028 155.61 295.034C155.621 295.037 155.632 295.039 155.646 295.042Z" fill="#EF772C"/>
<path d="M117.107 318.469C117.154 318.477 117.201 318.48 117.251 318.475C117.529 318.447 117.733 318.2 117.705 317.922L116.152 301.98C116.124 301.702 115.88 301.5 115.599 301.527C115.32 301.555 115.117 301.802 115.145 302.08L116.698 318.022C116.72 318.25 116.892 318.427 117.107 318.469Z" fill="#EF772C"/>
<path d="M109.096 314.803C109.147 314.812 109.197 314.814 109.25 314.809L116.581 313.973C116.859 313.943 117.056 313.69 117.026 313.416C116.995 313.138 116.742 312.938 116.467 312.972L109.135 313.807C108.857 313.837 108.66 314.09 108.69 314.365C108.715 314.59 108.885 314.762 109.096 314.803Z" fill="#EF772C"/>
<path d="M111.317 309.656C111.069 310.249 111.35 310.932 111.945 311.182C112.541 311.429 113.225 311.148 113.476 310.555C113.723 309.961 113.442 309.278 112.847 309.028C112.249 308.779 111.564 309.062 111.317 309.656Z" fill="#EF772C"/>
<path d="M101.651 386.252L99.1556 398.89C99.1556 398.89 93.21 400.935 87.6038 402.864C82.7488 404.534 71.1998 404.448 69.9256 407.698C69.1215 409.746 78.901 412.204 83.2107 412.39C87.5204 412.576 97.976 415.287 104.036 415.16C110.098 415.032 108.86 405.43 109.859 402.572C110.858 399.714 113.153 387.498 113.153 387.498L101.651 386.252Z" fill="#FF9D83"/>
<path d="M94.5149 398.376C94.5149 398.376 92.993 407.137 97.1329 414.574C97.1329 414.574 73.2865 413.731 68.8155 408.541C67.1656 406.627 68.234 404.892 70.9773 403.41C71.325 403.222 71.6979 403.038 72.1013 402.855C73.0723 402.422 74.1852 402.009 75.4177 401.626C75.7488 401.52 76.0854 401.421 76.4304 401.323C77.4515 401.029 78.5421 400.755 79.6828 400.496C80.0223 400.419 80.3645 400.344 80.7123 400.269C81.7278 400.058 82.7795 399.858 83.8534 399.672C84.1956 399.614 84.5406 399.556 84.8856 399.5C85.8983 399.337 86.9305 399.187 87.9711 399.051C88.3049 399.006 88.6416 398.965 88.9755 398.923C89.9993 398.795 91.0315 398.684 92.0637 398.587C92.392 398.557 92.7203 398.523 93.0459 398.496C93.5355 398.454 94.0252 398.415 94.5149 398.376Z" fill="#006C60"/>
<path d="M72.1013 402.855C71.1136 405.863 72.0679 408.489 72.079 408.514C72.118 408.619 72.1152 408.73 72.0818 408.83C72.0373 408.958 71.9427 409.063 71.8064 409.113C71.5671 409.202 71.2972 409.082 71.2054 408.841C71.1637 408.73 70.2928 406.357 70.9801 403.41C71.325 403.222 71.7006 403.038 72.1013 402.855Z" fill="#00433B"/>
<path d="M76.4304 401.323C76.4499 401.404 76.4443 401.49 76.4165 401.573C76.4165 401.582 76.411 401.587 76.4082 401.595C75.0755 405.428 76.4555 408.999 76.4694 409.035C76.5111 409.144 76.5111 409.257 76.4749 409.357C76.4332 409.479 76.3358 409.585 76.2051 409.637C75.9658 409.732 75.6931 409.615 75.5985 409.374C75.5401 409.218 74.1573 405.641 75.4121 401.623C75.746 401.523 76.0826 401.423 76.4304 401.323Z" fill="#00433B"/>
<path d="M80.7123 400.272C80.7151 400.327 80.7067 400.38 80.6872 400.435L80.6733 400.477C79.0819 405.05 80.8486 409.518 80.8653 409.563C80.9098 409.671 80.907 409.787 80.8736 409.887C80.8319 410.009 80.7373 410.115 80.6093 410.167C80.3701 410.262 80.0974 410.148 80.0028 409.909C79.9277 409.718 78.161 405.289 79.6856 400.499C80.0223 400.419 80.3645 400.344 80.7123 400.272Z" fill="#00433B"/>
<path d="M84.8828 399.5C83.1217 404.778 85.2362 410.029 85.2584 410.081C85.3029 410.19 85.3057 410.306 85.2696 410.409C85.2278 410.531 85.1332 410.634 85.0052 410.689C84.766 410.786 84.4933 410.673 84.3959 410.437C84.3041 410.215 82.2425 405.114 83.8506 399.675C84.1956 399.614 84.5378 399.556 84.8828 399.5Z" fill="#00433B"/>
<path d="M88.9755 398.923C87.2727 404.778 89.6293 410.548 89.6543 410.606C89.6988 410.717 89.6988 410.834 89.6627 410.936C89.6209 411.058 89.5291 411.161 89.4011 411.214C89.1647 411.314 88.8892 411.2 88.7918 410.964C88.6861 410.711 86.3741 405.073 87.9683 399.048C88.305 399.006 88.6388 398.965 88.9755 398.923Z" fill="#00433B"/>
<path d="M93.0486 398.498C91.4628 404.889 94.0252 411.067 94.053 411.133C94.1003 411.244 94.1003 411.361 94.0642 411.466C94.0224 411.586 93.9306 411.688 93.8054 411.741C93.5689 411.841 93.2963 411.733 93.1933 411.494C93.0765 411.214 90.5586 405.139 92.0665 398.587C92.392 398.557 92.7203 398.526 93.0486 398.498Z" fill="#00433B"/>
<path d="M95.5832 411.039C95.5832 411.039 103.671 412.471 109.024 410.742C109.024 410.742 109.845 413.756 107.566 415.723C107.566 415.723 88.6166 415.706 81.124 414.175C73.6315 412.643 68.4148 411.069 68.515 408.15L95.5832 411.039Z" fill="#006C60"/>
<path d="M95.4302 411.611C95.3662 411.794 95.1909 411.924 94.9878 411.924C82.0839 411.86 69.333 408.719 69.205 408.688C68.9546 408.627 68.8044 408.375 68.8656 408.125C68.9268 407.878 69.18 407.725 69.4304 407.787C69.5556 407.817 82.2035 410.931 94.9906 410.994C95.2494 410.997 95.4553 411.205 95.4553 411.461C95.4553 411.513 95.4469 411.563 95.4302 411.611Z" fill="#00433B"/>
<path d="M64.1441 380.486L58.9024 387.69C58.9024 387.69 51.5935 389.241 45.8399 387.801C40.8597 386.555 31.236 380.183 28.387 382.209C26.5897 383.485 33.4312 390.875 36.9396 393.381C40.4452 395.887 47.7151 403.857 52.8594 407.057C58.0065 410.254 62.6862 402.012 64.6338 399.692C68.0337 395.64 72.7078 389.227 72.7078 389.227L64.1441 380.486Z" fill="#FF9D83"/>
<path d="M54.0892 387.812C54.0892 387.812 48.0128 394.319 47.4035 402.802C47.4035 402.802 27.8973 389.094 26.9987 382.312C26.6648 379.809 28.5122 378.94 31.6227 379.192C32.0178 379.223 32.4324 379.273 32.8664 379.34C33.9181 379.506 35.0755 379.767 36.3163 380.119C36.6502 380.211 36.9869 380.311 37.3319 380.419C38.3501 380.73 39.4102 381.093 40.5092 381.501C40.8347 381.621 41.163 381.746 41.4941 381.873C42.4595 382.251 43.45 382.656 44.4516 383.086C44.7715 383.222 45.0915 383.363 45.4086 383.505C46.3463 383.921 47.2922 384.357 48.2409 384.812C48.5442 384.956 48.8475 385.106 49.1535 385.253C50.08 385.705 51.0037 386.174 51.9218 386.655C52.214 386.807 52.5061 386.96 52.7954 387.115C53.2267 387.343 53.6579 387.576 54.0892 387.812Z" fill="#006C60"/>
<path d="M32.8664 379.342C30.3902 381.321 29.7503 384.04 29.7447 384.068C29.7197 384.179 29.6557 384.271 29.575 384.335C29.4693 384.418 29.3302 384.454 29.1883 384.421C28.9379 384.365 28.7793 384.118 28.8349 383.866C28.86 383.749 29.4331 381.288 31.6227 379.195C32.0178 379.226 32.4296 379.276 32.8664 379.342Z" fill="#00433B"/>
<path d="M37.3318 380.419C37.304 380.497 37.2539 380.566 37.1816 380.622C37.176 380.627 37.1705 380.63 37.1649 380.635C33.9487 383.116 33.1446 386.86 33.139 386.899C33.114 387.01 33.0528 387.107 32.9665 387.174C32.8636 387.254 32.7245 387.29 32.5882 387.262C32.335 387.21 32.1736 386.965 32.2237 386.713C32.2599 386.552 33.0639 382.803 36.3163 380.122C36.6502 380.214 36.9869 380.314 37.3318 380.419Z" fill="#00433B"/>
<path d="M41.4941 381.87C41.4662 381.918 41.4301 381.956 41.3828 381.992L41.3494 382.017C37.5099 384.978 36.5417 389.682 36.5306 389.729C36.5083 389.843 36.4443 389.94 36.3581 390.007C36.2551 390.087 36.1188 390.123 35.9825 390.096C35.7321 390.046 35.5651 389.801 35.6152 389.549C35.657 389.346 36.6029 384.676 40.5064 381.496C40.8347 381.621 41.1602 381.743 41.4941 381.87Z" fill="#00433B"/>
<path d="M45.4086 383.502C41.0406 386.96 39.936 392.51 39.9221 392.568C39.8998 392.685 39.8386 392.782 39.7496 392.848C39.6467 392.926 39.5131 392.962 39.3768 392.94C39.1236 392.89 38.9595 392.646 39.0067 392.396C39.0513 392.16 40.1196 386.763 44.4488 383.086C44.7687 383.222 45.0887 383.361 45.4086 383.502Z" fill="#00433B"/>
<path d="M49.1507 385.25C44.5156 389.224 43.3275 395.34 43.3164 395.404C43.2942 395.521 43.2302 395.618 43.1439 395.687C43.041 395.765 42.9074 395.804 42.7739 395.779C42.5207 395.732 42.3538 395.49 42.4011 395.238C42.4511 394.969 43.6058 388.988 48.241 384.812C48.5442 384.953 48.8475 385.101 49.1507 385.25Z" fill="#00433B"/>
<path d="M52.7954 387.112C47.9655 391.6 46.7246 398.168 46.7107 398.24C46.6885 398.357 46.6245 398.457 46.5354 398.526C46.4353 398.604 46.3017 398.64 46.1682 398.615C45.915 398.571 45.7453 398.329 45.7926 398.074C45.8455 397.777 47.0696 391.314 51.9218 386.652C52.214 386.804 52.5033 386.957 52.7954 387.112Z" fill="#00433B"/>
<path d="M48.0434 398.995C48.0434 398.995 54.0308 404.604 59.4617 406.074C59.4617 406.074 58.4962 409.044 55.5109 409.452C55.5109 409.452 39.6522 399.106 34.2186 393.739C28.7849 388.372 25.2793 384.21 26.9625 381.818L48.0434 398.995Z" fill="#006C60"/>
<path d="M47.601 399.392C47.448 399.511 47.231 399.525 47.0585 399.411C36.2885 392.321 27.3326 382.739 27.2435 382.645C27.0682 382.456 27.0794 382.162 27.2686 381.987C27.455 381.812 27.7527 381.823 27.928 382.012C28.017 382.106 36.9006 391.611 47.5732 398.637C47.7875 398.779 47.8487 399.067 47.7068 399.281C47.6762 399.325 47.6428 399.361 47.601 399.392Z" fill="#00433B"/>
<path d="M105.182 315.05C109.283 312.339 166.797 309.159 183.846 317.684C185.137 322.052 156.923 333.507 148.651 341.549C124.196 340.811 109.414 346.194 109.414 346.194C109.414 346.194 97.2303 363.935 90.8479 370.074C84.4655 376.215 71.0997 394.1 71.0997 394.1L59.214 385.353C59.214 385.348 94.0141 322.429 105.182 315.05Z" fill="#CE101D"/>
<path d="M76.0576 387.24C76.2496 387.276 76.4555 387.201 76.5723 387.029C76.7309 386.799 76.6725 386.485 76.4416 386.327L64.1414 377.922C63.9104 377.763 63.596 377.822 63.4374 378.052C63.2789 378.282 63.3373 378.596 63.5682 378.754L75.8684 387.16C75.9296 387.201 75.9936 387.229 76.0576 387.24Z" fill="#9E001B"/>
<path d="M72.8664 385.031C73.0556 385.067 73.2587 384.992 73.3783 384.826C73.4368 384.743 74.9364 382.664 85.1054 371.564C96.1842 359.47 108.468 341.333 108.593 341.152C108.749 340.922 108.688 340.608 108.457 340.453C108.226 340.298 107.911 340.359 107.755 340.589C107.633 340.769 95.3885 358.846 84.3625 370.884C74.0822 382.106 72.6104 384.168 72.552 384.251C72.3906 384.479 72.4491 384.795 72.6772 384.953C72.7356 384.992 72.7996 385.017 72.8664 385.031Z" fill="#9E001B"/>
<path d="M203.92 316.959C203.92 316.959 214.601 361.532 162.732 354.564C139.323 351.42 128.962 345.689 128.962 345.689C128.962 345.689 124.418 366.003 121.658 374.406C118.898 382.811 112.691 397.549 112.691 397.549L98.8162 394.855C98.8162 394.855 105.544 330.824 118.078 326.114C130.614 321.402 151.027 320.001 179.172 322.723C179.172 322.723 199.469 318.139 203.92 316.959Z" fill="#FF4F3F"/>
<path d="M112.416 389.813C112.647 389.857 112.886 389.735 112.98 389.51C116.909 380.017 119.983 367.848 122.451 358.069C124.499 349.96 126.433 342.304 127.668 341.577C128.669 340.988 132.105 342.265 136.454 343.883C145.104 347.099 158.175 351.958 173.747 351.392C182.227 351.084 188.96 348.312 193.757 343.15C202.028 334.248 201.608 321.141 201.603 321.008C201.591 320.731 201.355 320.511 201.077 320.525C200.799 320.536 200.582 320.77 200.59 321.05C200.595 321.177 200.993 333.882 193.008 342.47C188.401 347.424 181.91 350.088 173.708 350.385C158.339 350.943 145.379 346.125 136.805 342.937C131.669 341.027 128.569 339.876 127.153 340.705C125.623 341.602 124.151 347.191 121.466 357.819C119.007 367.565 115.944 379.695 112.04 389.122C111.934 389.38 112.057 389.674 112.316 389.779C112.352 389.799 112.382 389.807 112.416 389.813Z" fill="#CE101D"/>
<path d="M99.9959 387.401C99.9986 387.401 100.004 387.404 100.007 387.404L115.501 390.068C115.777 390.115 116.038 389.932 116.085 389.657C116.133 389.382 115.952 389.116 115.674 389.074L100.179 386.41C99.904 386.363 99.6425 386.546 99.5952 386.821C99.5479 387.093 99.726 387.348 99.9959 387.401Z" fill="#CE101D"/>
<path d="M167.239 324.957L111.74 322.676C111.564 322.668 111.425 322.521 111.434 322.343L111.709 315.683C111.717 315.508 111.865 315.369 112.043 315.378L167.543 317.659C167.718 317.667 167.857 317.814 167.849 317.992L167.573 324.652C167.568 324.827 167.417 324.965 167.239 324.957Z" fill="#270A04"/>
<path d="M105.56 322.423C103.449 322.337 101.657 320.844 101.195 318.785L92.3169 279.138C91.7744 276.716 93.683 274.437 96.1703 274.54L121.305 275.572C123.002 275.642 124.443 276.83 124.836 278.475L135.569 323.656L105.56 322.423Z" fill="#270A04"/>
<path d="M108.164 299.024C108.746 301.622 111.111 303.895 113.448 304.097C115.785 304.3 117.207 302.36 116.625 299.76C116.044 297.162 113.679 294.89 111.342 294.687C109.007 294.484 107.583 296.427 108.164 299.024Z" fill="#FFAE41"/>
<path d="M112.891 298.555C113.008 299.074 113.267 299.51 113.47 299.529C113.673 299.546 113.743 299.141 113.629 298.619C113.512 298.1 113.253 297.665 113.05 297.645C112.847 297.628 112.777 298.034 112.891 298.555Z" fill="#270A04"/>
<path d="M110.685 298.361C110.802 298.88 111.061 299.316 111.264 299.335C111.467 299.352 111.537 298.947 111.422 298.425C111.306 297.906 111.047 297.47 110.844 297.451C110.641 297.434 110.568 297.842 110.685 298.361Z" fill="#270A04"/>
<path d="M112.872 301.683C114.692 301.841 114.655 299.854 114.655 299.835C114.653 299.726 114.564 299.613 114.461 299.579C114.355 299.546 114.274 299.607 114.277 299.715C114.28 299.787 114.299 301.405 112.783 301.272C111.264 301.139 110.546 299.457 110.518 299.388C110.471 299.277 110.357 299.196 110.265 299.213C110.17 299.23 110.134 299.332 110.179 299.443C110.182 299.463 111.052 301.525 112.872 301.683Z" fill="#270A04"/>
<path d="M124.838 278.475L135.483 323.284L138.354 323.403L127.71 278.594C127.314 276.946 125.876 275.758 124.179 275.689L121.308 275.57C123.002 275.639 124.443 276.827 124.838 278.475Z" fill="#270A04"/>
<path d="M134.721 320.495C134.534 320.495 134.367 320.367 134.323 320.178L124.44 278.569C124.388 278.35 124.524 278.128 124.746 278.076C124.966 278.023 125.189 278.159 125.242 278.381L135.124 319.99C135.177 320.209 135.041 320.431 134.818 320.484C134.785 320.489 134.751 320.495 134.721 320.495Z" fill="#594B54"/>
<path d="M157.198 285.313C157.215 285.363 157.223 285.402 157.237 285.452C157.39 285.979 157.574 286.492 157.794 286.995C159.068 290.008 161.28 292.564 162.162 293.516C162.404 293.785 162.551 293.924 162.551 293.924C162.551 293.94 162.543 293.957 162.543 293.979C162.526 294.135 162.51 294.287 162.493 294.457C162.426 295.106 162.326 295.883 162.142 296.743C159.994 306.606 159.463 308.257 158.595 312.447C171.563 331.087 202.298 319.271 203.92 316.959C205.325 306.966 205.325 306.966 206.816 297.295C207.532 292.625 209.443 285.626 211.989 278.65C212.086 278.375 212.186 278.098 212.292 277.823C213.054 275.772 213.867 273.733 214.721 271.773C218.452 263.19 217.578 255.473 212.551 251.957C210.842 250.764 205.595 249.201 203.272 248.716C202.646 248.582 202.028 248.46 201.444 248.344C198.169 247.717 195.61 247.359 195.61 247.359L179.898 247.497C178.352 247.669 176.96 247.861 175.708 248.091C174.609 248.283 173.616 248.505 172.72 248.754C164.71 250.95 164.404 255.148 162.938 262.718C162.515 264.875 161.923 266.998 161.274 269.04C161.06 269.681 160.846 270.311 160.634 270.944C158.578 276.954 156.322 282.122 157.198 285.313Z" fill="#FFAE41"/>
<path d="M196.469 247.497C196.469 247.497 204.652 248.802 204.607 253.475C204.563 258.151 187.875 257.773 187.875 257.773C187.875 257.773 195.615 252.656 196.469 247.497Z" fill="white"/>
<path d="M180.26 247.497C180.26 247.497 172.078 248.802 172.122 253.475C172.167 258.151 183.671 258.22 183.671 258.22C183.671 258.22 181.114 252.656 180.26 247.497Z" fill="white"/>
<path d="M180.327 246.859L179.759 252.404C179.298 256.927 184.225 260.007 188.117 257.637C192.652 254.876 196.72 251.105 196.773 247.533L180.327 246.859Z" fill="#FF9D83"/>
<path d="M162.551 293.921C162.551 293.938 162.543 293.954 162.543 293.977C162.526 294.132 162.51 294.285 162.493 294.454C165.361 295.112 169.053 295.206 173.399 294.379C181.968 292.739 188.955 296.704 189.021 296.746C189.085 296.788 189.169 296.804 189.241 296.804C189.389 296.804 189.533 296.724 189.608 296.588C189.731 296.385 189.659 296.124 189.455 296.002C189.163 295.83 182.127 291.84 173.232 293.535C168.725 294.396 164.969 294.246 162.165 293.513C162.404 293.782 162.551 293.921 162.551 293.921Z" fill="#EF772C"/>
<path d="M176.724 272.639C181.966 272.659 192.691 265.205 193.145 264.889C193.339 264.753 193.387 264.483 193.25 264.289C193.114 264.095 192.847 264.048 192.649 264.184C192.541 264.259 181.696 271.796 176.727 271.779C171.972 271.762 170.934 266.576 170.926 266.523C170.881 266.29 170.659 266.135 170.422 266.182C170.189 266.226 170.036 266.451 170.08 266.684C170.091 266.745 171.265 272.62 176.724 272.639Z" fill="#EF772C"/>
<path d="M159.739 305.301C159.989 305.349 160.239 305.204 160.317 304.957C161.55 301.064 163.024 294.151 163.038 294.082C163.08 293.888 163.002 293.688 162.843 293.571C162.802 293.541 158.609 290.397 157.696 285.224C157.649 284.949 157.385 284.766 157.109 284.813C156.834 284.861 156.65 285.124 156.698 285.399C157.557 290.264 160.991 293.372 161.978 294.179C161.678 295.561 160.42 301.272 159.349 304.652C159.266 304.918 159.413 305.202 159.68 305.285C159.7 305.293 159.719 305.296 159.739 305.301Z" fill="#EF772C"/>
<path d="M167.106 217.302C167.106 217.302 164.51 224.903 168.6 227.85L168.959 217.41L167.106 217.302Z" fill="#270A04"/>
<path d="M171.524 209.177C171.524 209.177 181.228 199.636 192.752 207.509C204.477 215.521 203.166 235.978 192.641 238.465C192.644 238.465 175.127 223.249 171.524 209.177Z" fill="#270A04"/>
<path d="M171.596 229.224C171.596 229.224 168.758 226.879 167.927 229.876C167.095 232.873 169.112 238.284 172.517 236.736L171.596 229.224Z" fill="#FF7D65"/>
<path d="M179.553 242.438L180.586 250.017C180.586 250.017 186.178 257.64 196.773 247.533C194.717 244.509 193.033 238.875 193.431 235.789C193.431 235.789 192.602 236.261 191.32 237.366C191.069 237.582 190.749 237.749 190.435 237.951C187.658 239.741 183.41 242.055 179.553 242.438Z" fill="#FF9D83"/>
<path d="M179.553 242.438L180.043 246.032C183.182 244.725 188.74 241.906 191.322 237.366C191.047 237.552 190.752 237.749 190.438 237.951C187.658 239.741 183.41 242.055 179.553 242.438Z" fill="#270A04"/>
<path d="M172.514 240.757C179.284 247.231 193.008 236.156 193.42 235.817C193.426 235.812 193.431 235.809 193.431 235.809C193.456 235.193 193.47 234.582 193.473 233.983C193.501 228.896 192.738 224.312 191.461 220.055C190.883 215.429 187.385 211.647 182.781 210.842C178.009 210.009 174.345 212.687 172.064 213.858C168.622 215.626 167.167 220.729 168.341 227.425C169.785 235.642 170.645 238.967 172.514 240.757Z" fill="#FF9D83"/>
<path d="M177.528 219.514C177.528 219.514 176.22 219.883 176.905 221.015C177.589 222.15 180.021 220.332 182.336 222.236C182.336 222.239 182.628 219.173 177.528 219.514Z" fill="#270A04"/>
<path d="M171.493 220.588C171.493 220.588 172.848 220.482 172.598 221.784C172.348 223.085 169.437 222.217 167.924 224.8C167.924 224.798 166.591 222.022 171.493 220.588Z" fill="#270A04"/>
<path d="M179.654 228.935C179.765 229.554 181.134 229.829 182.711 229.548C184.289 229.268 185.48 228.538 185.368 227.919C185.257 227.301 183.888 227.026 182.311 227.306C180.73 227.586 179.542 228.316 179.654 228.935Z" fill="#FF7D65"/>
<g opacity="0.8">
<path d="M168.202 232.093C168.427 232.076 168.661 232.046 168.898 232.004C170.475 231.724 171.666 230.994 171.555 230.375C171.443 229.757 170.074 229.479 168.497 229.759C168.283 229.798 168.077 229.843 167.879 229.898L168.202 232.093Z" fill="#FF7D65"/>
</g>
<path d="M190.029 232.856C190.087 232.945 191.673 235.34 193.423 235.817C193.426 235.817 193.426 235.817 193.426 235.817C193.431 235.812 193.434 235.806 193.434 235.806C193.459 235.19 193.473 234.58 193.476 233.98C193.412 233.983 191.731 233.988 190.029 232.856Z" fill="#270A04"/>
<path d="M190.538 226.668C190.538 226.668 193.134 221.49 196.275 224.639C198.862 227.234 196.347 235.64 191.798 233.722L190.538 226.668Z" fill="#FF9D83"/>
<path d="M194.224 231.632C194.224 231.632 192.176 237.319 193.926 237.746C197.14 238.528 194.224 231.632 194.224 231.632Z" fill="white"/>
<path d="M192.018 232.26C192.196 232.229 192.324 232.068 192.31 231.885C192.071 228.358 194.761 226.635 194.875 226.565C195.042 226.46 195.092 226.241 194.989 226.074C194.886 225.908 194.667 225.858 194.5 225.96C194.369 226.041 191.331 227.969 191.598 231.932C191.612 232.129 191.781 232.276 191.979 232.262C191.99 232.265 192.004 232.262 192.018 232.26Z" fill="#270A04"/>
<path d="M194.914 229.557C195.017 229.537 195.109 229.476 195.165 229.379C195.259 229.207 195.198 228.991 195.025 228.896C194.864 228.807 193.428 228.042 192.424 228.499C192.246 228.58 192.165 228.791 192.246 228.971C192.327 229.149 192.538 229.229 192.719 229.149C193.298 228.885 194.33 229.329 194.68 229.521C194.753 229.557 194.836 229.571 194.914 229.557Z" fill="#270A04"/>
<path d="M178.521 225.799C178.674 226.651 179.183 227.273 179.662 227.187C180.141 227.101 180.402 226.343 180.252 225.491C180.099 224.639 179.59 224.018 179.111 224.104C178.635 224.19 178.371 224.947 178.521 225.799Z" fill="#270A04"/>
<path d="M170.08 227.117C170.233 227.969 170.742 228.591 171.221 228.505C171.699 228.419 171.961 227.661 171.811 226.809C171.66 225.957 171.148 225.336 170.67 225.422C170.191 225.505 169.927 226.266 170.08 227.117Z" fill="#270A04"/>
<path d="M175.644 234.507C177.815 234.122 179.445 232.246 179.467 232.218C179.595 232.068 179.576 231.843 179.428 231.716C179.278 231.588 179.053 231.607 178.925 231.757C178.797 231.904 175.87 235.254 172.857 233.209C172.695 233.098 172.473 233.139 172.361 233.303C172.25 233.467 172.292 233.686 172.456 233.797C173.563 234.549 174.66 234.682 175.644 234.507Z" fill="#270A04"/>
<path d="M187.241 217.236C187.241 217.236 186.645 227.306 189.647 227.903C193.203 228.61 193.476 220.652 191.089 214.33L187.241 217.236Z" fill="#270A04"/>
<path d="M188.735 219.281C188.735 219.281 174.454 221.301 171.61 215.781C171.61 215.781 170.322 220.69 167.187 221.004C167.187 221.004 165.169 215.609 171.527 209.177C171.527 209.177 186.746 205.048 190.449 211.433C194.152 217.818 188.735 219.281 188.735 219.281Z" fill="#270A04"/>
<path d="M178.549 229.67C177.222 229.67 176.056 228.696 175.861 227.348L175.589 225.472C175.483 224.734 175.998 224.048 176.735 223.94L184.381 222.838C185.121 222.733 185.808 223.246 185.916 223.982L186.189 225.858C186.292 226.574 186.111 227.287 185.677 227.867C185.243 228.447 184.609 228.824 183.888 228.927L178.939 229.64C178.808 229.659 178.677 229.67 178.549 229.67ZM184.578 223.479C184.545 223.479 184.511 223.482 184.478 223.488L176.832 224.589C176.451 224.645 176.187 224.997 176.243 225.378L176.515 227.253C176.593 227.797 176.88 228.277 177.322 228.605C177.762 228.932 178.304 229.071 178.85 228.993L183.799 228.28C184.344 228.203 184.826 227.917 185.154 227.475C185.482 227.037 185.622 226.496 185.544 225.952L185.271 224.076C185.218 223.729 184.918 223.479 184.578 223.479Z" fill="white"/>
<path d="M168.603 231.102C168.021 231.102 167.456 230.917 166.981 230.561C166.399 230.128 166.021 229.496 165.918 228.777L165.645 226.901C165.539 226.163 166.054 225.477 166.791 225.369L171.947 224.625C172.687 224.517 173.374 225.033 173.483 225.769L173.755 227.645C173.97 229.124 172.937 230.5 171.454 230.714L168.995 231.069C168.867 231.094 168.733 231.102 168.603 231.102ZM172.144 225.269C172.111 225.269 172.078 225.272 172.044 225.278L166.889 226.021C166.508 226.077 166.243 226.429 166.299 226.809L166.572 228.685C166.65 229.229 166.936 229.709 167.376 230.037C167.815 230.364 168.358 230.503 168.903 230.425L171.363 230.07C172.487 229.909 173.268 228.863 173.107 227.742L172.834 225.866C172.784 225.519 172.487 225.269 172.144 225.269Z" fill="white"/>
<path d="M174.462 229.687C174.902 229.609 175.478 229.426 176.015 229.002C176.168 228.88 176.195 228.655 176.073 228.502C175.951 228.35 175.725 228.322 175.572 228.444C175.085 228.83 174.545 228.963 174.189 229.007L174.757 225.497C174.788 225.303 174.657 225.119 174.462 225.089C174.267 225.058 174.084 225.189 174.053 225.383L173.416 229.326C173.399 229.424 173.427 229.526 173.488 229.604C173.549 229.682 173.641 229.732 173.741 229.737C173.764 229.74 174.053 229.759 174.462 229.687Z" fill="#270A04"/>
<path d="M173.171 225.694L172.832 225.133C173.875 224.506 174.941 224.398 175.992 224.817L175.75 225.425C174.888 225.083 174.045 225.172 173.171 225.694Z" fill="white"/>
<path d="M185.594 224.356C185.457 224.356 185.329 224.27 185.282 224.134C185.224 223.962 185.315 223.776 185.488 223.718C185.655 223.663 189.583 222.358 192.705 223.538C192.875 223.601 192.961 223.79 192.897 223.959C192.833 224.129 192.644 224.215 192.474 224.151C189.572 223.055 185.738 224.326 185.699 224.34C185.663 224.351 185.627 224.356 185.594 224.356Z" fill="white"/>
<path d="M149.823 313.427C149.823 313.427 139.974 309.003 135.472 311.271L137.255 318.78C137.255 318.78 141.206 320.628 142.937 321.433C144.664 322.238 144.842 325.529 151.436 325.559L149.823 313.427Z" fill="#FF9D83"/>
<path d="M217.673 270.985C217.625 268.632 217.484 266.282 217.233 263.926C217.108 262.746 216.958 261.567 216.774 260.376C216.679 259.78 216.577 259.18 216.46 258.567C216.401 258.262 216.34 257.951 216.273 257.632L216.168 257.141L216.109 256.88L216.026 256.53L198.937 260.768L199.032 261.206L199.154 261.822C199.235 262.247 199.31 262.685 199.38 263.132C199.527 264.023 199.655 264.933 199.758 265.851C199.972 267.689 200.106 269.553 200.164 271.415C200.303 275.142 200.131 278.875 199.622 282.518C199.496 283.429 199.343 284.336 199.177 285.235C199.015 286.137 198.826 287.031 198.617 287.916C198.411 288.801 198.178 289.681 197.925 290.549C197.674 291.421 197.393 292.278 197.098 293.133C196.806 293.988 196.481 294.826 196.147 295.658C195.802 296.488 195.443 297.309 195.056 298.117C194.667 298.922 194.263 299.724 193.826 300.503C193.615 300.897 193.387 301.28 193.161 301.669L193.139 301.708C192.983 301.833 192.763 301.988 192.508 302.152C191.971 302.493 191.278 302.862 190.529 303.22C189.016 303.939 187.266 304.61 185.457 305.24C181.821 306.498 177.918 307.558 173.97 308.543C170.013 309.514 165.987 310.396 161.934 311.21C159.905 311.623 157.872 312.014 155.838 312.389L152.783 312.936L151.261 313.205L149.773 313.457L151.425 326.972L153.083 326.819L154.703 326.661C155.779 326.547 156.853 326.428 157.925 326.303C160.07 326.053 162.212 325.784 164.357 325.493C168.642 324.899 172.929 324.216 177.233 323.384C181.546 322.554 185.858 321.585 190.285 320.284C192.502 319.626 194.739 318.877 197.093 317.881C197.343 317.775 197.593 317.664 197.847 317.551C198.787 317.129 199.752 316.657 200.765 316.08C201.408 315.711 202.073 315.3 202.768 314.806C203.461 314.315 204.201 313.726 204.972 312.972C205.364 312.583 205.759 312.153 206.163 311.648C206.369 311.384 206.566 311.124 206.766 310.818L206.917 310.596L206.986 310.485L207.109 310.294C207.437 309.78 207.765 309.267 208.074 308.745C208.642 307.816 209.176 306.869 209.688 305.912C209.749 305.798 209.81 305.687 209.871 305.571C210.439 304.497 210.97 303.406 211.477 302.304C211.972 301.2 212.456 300.09 212.89 298.963C214.632 294.457 215.889 289.8 216.649 285.105C217.414 280.412 217.737 275.689 217.673 270.985ZM193.209 301.655C193.214 301.644 193.223 301.638 193.231 301.627C193.306 301.539 193.351 301.5 193.37 301.489C193.392 301.477 193.334 301.547 193.209 301.655Z" fill="#FFAE41"/>
<path d="M209.688 305.915C209.176 306.872 208.642 307.818 208.074 308.748C207.762 309.27 207.437 309.783 207.109 310.297L206.986 310.488L206.917 310.599L206.766 310.821C206.563 311.126 206.369 311.387 206.163 311.651C205.759 312.156 205.361 312.586 204.972 312.974C204.198 313.729 203.461 314.318 202.768 314.809C202.073 315.303 201.408 315.716 200.765 316.082C199.752 316.66 198.79 317.131 197.847 317.553C198.322 306.276 205.737 305.51 209.688 305.915Z" fill="#EF772C"/>
<path d="M198.169 306.362C198.328 306.392 198.498 306.348 198.62 306.226C198.82 306.031 198.823 305.709 198.626 305.512C196.202 303.054 192.741 300.614 192.597 300.512C192.368 300.351 192.051 300.406 191.893 300.634C191.731 300.861 191.787 301.178 192.015 301.336C192.051 301.361 195.548 303.828 197.905 306.22C197.98 306.295 198.072 306.342 198.169 306.362Z" fill="#EF772C"/>
<path d="M197.226 302.785C197.479 302.834 197.733 302.685 197.808 302.435C197.888 302.168 197.735 301.885 197.468 301.808C197.357 301.774 194.719 300.992 192.641 300.603C192.366 300.553 192.101 300.734 192.051 301.006C192.001 301.28 192.185 301.539 192.455 301.594C194.477 301.971 197.151 302.765 197.176 302.773C197.193 302.779 197.209 302.782 197.226 302.785Z" fill="#EF772C"/>
<path d="M160.028 311.823C160.097 311.837 160.173 311.837 160.248 311.817C179.022 307.164 191.628 301.816 192.263 301.208C192.313 301.158 192.355 301.1 192.38 301.033C192.811 299.973 202.91 274.984 201.458 264.913C201.419 264.639 201.163 264.447 200.885 264.486C200.609 264.525 200.417 264.78 200.456 265.058C201.814 274.482 192.327 298.453 191.5 300.515C190.19 301.275 177.926 306.395 160.006 310.838C159.736 310.904 159.569 311.179 159.636 311.448C159.683 311.645 159.839 311.787 160.028 311.823Z" fill="#EF772C"/>
<path d="M200.643 269.781C200.768 269.806 200.904 269.784 201.018 269.706C201.252 269.553 201.316 269.24 201.163 269.007L199.444 266.406C199.291 266.173 198.976 266.11 198.742 266.262C198.509 266.415 198.445 266.728 198.598 266.961L200.317 269.562C200.395 269.681 200.515 269.756 200.643 269.781Z" fill="#EF772C"/>
<path d="M159.366 326.297C159.419 326.309 159.474 326.309 159.53 326.303C159.808 326.267 160.003 326.012 159.964 325.737L158.208 312.542C158.172 312.264 157.916 312.07 157.641 312.109C157.362 312.145 157.168 312.4 157.207 312.675L158.962 325.87C158.99 326.089 159.16 326.256 159.366 326.297Z" fill="#EF772C"/>
<path d="M151.4 324.161C151.456 324.172 151.514 324.172 151.573 324.163L158.87 323.073C159.146 323.031 159.338 322.776 159.296 322.498C159.254 322.224 158.996 322.032 158.72 322.074L151.422 323.167C151.147 323.209 150.955 323.464 150.997 323.742C151.03 323.955 151.194 324.119 151.4 324.161Z" fill="#EF772C"/>
<path d="M153.453 318.941C153.225 319.543 153.531 320.217 154.135 320.442C154.739 320.67 155.415 320.364 155.64 319.762C155.868 319.16 155.562 318.486 154.959 318.261C154.358 318.033 153.682 318.339 153.453 318.941Z" fill="#EF772C"/>
</svg>
