<svg width="40" height="40" viewBox="0 0 40 40" fill="none" xmlns="http://www.w3.org/2000/svg">
<rect width="40" height="40" rx="20" fill="white"/>
<path d="M23.5676 24.813C28.5468 24.813 32.3552 20.773 32.3497 15.7938C32.3497 15.768 32.3497 15.7426 32.3497 15.7177C32.3496 6.45629 27.7178 0 19.9999 0C12.2821 0 7.6504 6.45629 7.6504 15.7177C7.6504 15.7426 7.6504 15.768 7.6504 15.7938C7.64494 20.773 11.4533 24.813 16.4325 24.813H23.5676Z" fill="#C64832"/>
<path d="M32.3497 15.7177C32.3497 6.45629 27.7179 0 20 0V24.813H23.5677C28.5469 24.813 32.3552 20.773 32.3498 15.7938C32.3497 15.7681 32.3497 15.7428 32.3497 15.7177Z" fill="#B2332D"/>
<path d="M26.0461 30.6502C26.0461 30.6502 23.2659 28.5567 23.2659 21.3998H20.2842H19.7156H16.7339C16.7339 28.5567 13.9536 30.6502 13.9536 30.6502C13.9536 36.0348 18.3678 36.2003 19.7156 36.7022V36.8769C19.7156 36.8769 19.8204 36.8555 19.9999 36.7996C20.1794 36.8555 20.2842 36.8769 20.2842 36.8769V36.7022C21.6319 36.2004 26.0461 36.0348 26.0461 30.6502Z" fill="#F3D8B6"/>
<path d="M23.266 21.3999H20.2843H20V36.7996C20.1795 36.8555 20.2843 36.8769 20.2843 36.8769V36.7022C21.632 36.2004 26.0463 36.0348 26.0463 30.6502C26.0462 30.6502 23.266 28.5568 23.266 21.3999Z" fill="#EEC8A2"/>
<path d="M19.9998 7.45685C19.4515 8.14788 15.2084 11.5006 12.7018 12.6532C12.7645 15.3456 13.1826 17.8453 13.6732 18.751C14.7011 20.6487 16.9949 23.1794 20.0001 23.1794C23.0046 23.1794 25.2981 20.6487 26.3263 18.751C26.8168 17.8453 27.2351 15.3456 27.2979 12.6532C24.7912 11.5006 20.5483 8.14788 19.9998 7.45685Z" fill="#F3DBC4"/>
<path d="M19.9999 7.45685V23.1794C20 23.1794 20 23.1794 20.0001 23.1794C23.0047 23.1794 25.2982 20.6487 26.3264 18.751C26.8169 17.8453 27.2352 15.3456 27.2979 12.6532C24.7913 11.5006 20.5484 8.14788 19.9999 7.45685Z" fill="#EDCEAE"/>
<path d="M14.1297 12.6017C13.4118 12.6017 13.1639 13.913 13.1639 13.913C13.1639 15.6476 14.3617 17.0539 16.26 17.0539C18.1583 17.0539 19.9336 13.5389 19.8966 13.3726L18.6051 12.717C18.456 12.6412 18.291 12.6018 18.1237 12.6018H14.1297V12.6017Z" fill="#C4C3DB"/>
<path d="M25.8702 12.6017C26.5882 12.6017 26.836 13.913 26.836 13.913C26.836 15.6476 25.6382 17.0539 23.7399 17.0539C21.8417 17.0539 20.0663 13.5389 20.1034 13.3726L21.5536 12.7004C21.6938 12.6354 21.8463 12.6018 22.0008 12.6018H25.8702V12.6017Z" fill="#9599AF"/>
<path d="M27.3387 13.8181C27.3053 13.6413 26.9801 12.0903 25.8703 12.0903H22.001C21.7738 12.0903 21.5447 12.1407 21.3386 12.2363L20.0054 12.8543L18.8365 12.2609C18.6167 12.1494 18.3701 12.0904 18.1236 12.0904H14.1298C13.0199 12.0904 12.6946 13.6414 12.6613 13.8182L12.6525 13.8653V13.9132C12.6525 16.0295 14.1697 17.5654 16.2601 17.5654C17.1691 17.5654 18.1032 16.975 19.0363 15.8106C19.4943 15.2391 19.833 14.6713 20.0001 14.372C20.1672 14.6713 20.5058 15.2391 20.9638 15.8106C21.897 16.975 22.8312 17.5654 23.7401 17.5654C25.8305 17.5654 27.3477 16.0295 27.3477 13.9132V13.8653L27.3387 13.8181ZM16.2598 16.5424C14.7547 16.5424 13.6984 15.4844 13.6757 13.9633C13.7661 13.5493 13.9964 13.1133 14.1296 13.1133H18.1235C18.2099 13.1133 18.2963 13.134 18.3733 13.1731L19.2497 13.6181C18.7952 14.5161 17.4482 16.5424 16.2598 16.5424ZM23.74 16.5424C22.5583 16.5424 21.2196 14.5386 20.7577 13.6332L21.7689 13.1645C21.8411 13.1311 21.9213 13.1133 22.001 13.1133H25.8703C26.0035 13.1133 26.234 13.55 26.3242 13.9632C26.3014 15.4845 25.2453 16.5424 23.74 16.5424Z" fill="#212222"/>
<path d="M27.3388 13.8181C27.3053 13.6413 26.9801 12.0903 25.8703 12.0903H22.001C21.7738 12.0903 21.5447 12.1407 21.3386 12.2363L20.0055 12.8543L20 12.8516V14.372C20.1671 14.6713 20.5057 15.2391 20.9637 15.8106C21.8969 16.975 22.8311 17.5654 23.74 17.5654C25.8304 17.5654 27.3476 16.0295 27.3476 13.9132V13.8653L27.3388 13.8181ZM23.74 16.5424C22.5584 16.5424 21.2196 14.5386 20.7578 13.6332L21.7689 13.1645C21.8411 13.1311 21.9213 13.1133 22.001 13.1133H25.8703C26.0035 13.1133 26.2341 13.55 26.3242 13.9632C26.3015 15.4845 25.2453 16.5424 23.74 16.5424Z" fill="black"/>
<path d="M33.2975 40H6.70264V35.3748C6.70264 30.2659 10.266 26.1244 15.3749 26.1244C15.3749 26.1244 16.6732 37.8983 20.103 37.8983C23.5328 37.8983 24.6252 26.1244 24.6252 26.1244C29.7341 26.1244 33.2975 30.2659 33.2975 35.3748V40Z" fill="#367992"/>
<path d="M24.6252 26.1245C24.6252 26.1245 23.5328 37.8984 20.103 37.8984C20.0683 37.8984 20.0342 37.8952 20 37.8928V40H33.2974V35.3748C33.2975 30.266 29.734 26.1245 24.6252 26.1245Z" fill="#2F697E"/>
<path d="M24.652 26.1789C24.652 30.2334 22.5947 38.4439 20.0569 38.4439C17.5191 38.4439 15.3481 30.2334 15.3481 26.1789C15.3481 25.5438 17.5191 30.6782 20.0569 30.6782C22.5947 30.6782 24.652 25.5485 24.652 26.1789Z" fill="#FF628B"/>
<path d="M20.0568 30.6781C20.0379 30.6781 20.019 30.6768 20 30.6762V38.4408C20.019 38.4417 20.0379 38.4437 20.0568 38.4437C22.5946 38.4437 24.6519 30.2331 24.6519 26.1787C24.652 25.5485 22.5946 30.6781 20.0568 30.6781Z" fill="#C85279"/>
</svg>
