<svg width="30" height="30" viewBox="0 0 30 30" fill="none" xmlns="http://www.w3.org/2000/svg">
<path d="M18.5563 26.4196C18.5564 26.4274 18.5569 26.4352 18.5569 26.443C18.5569 28.4075 16.9644 30 14.9999 30C13.0355 30 11.443 28.4075 11.443 26.443C11.443 26.4352 11.4435 26.4274 11.4436 26.4196H18.5563Z" fill="black"/>
<path d="M3.64352 21.9734L6.84479 17.2708C6.84479 15.8313 6.84479 12.3138 6.84479 11.4039C6.84479 7.4472 9.66261 4.14907 13.4009 3.40582V1.59916C13.4009 0.716015 14.1169 0 15.0001 0C15.8833 0 16.5993 0.716015 16.5993 1.59916V3.40589C20.3375 4.1492 23.1553 7.44733 23.1553 11.4039C23.1553 12.9529 23.1553 16.3731 23.1553 17.2709L26.3566 21.9735C26.6938 22.4688 26.7295 23.11 26.4493 23.6397C26.1691 24.1693 25.619 24.5006 25.0198 24.5006H4.98039C4.38116 24.5006 3.8311 24.1693 3.55091 23.6397C3.27066 23.1099 3.30638 22.4687 3.64352 21.9734Z" fill="black"/>
</svg>
