<svg width="30" height="30" viewBox="0 0 30 30" fill="none" xmlns="http://www.w3.org/2000/svg">
<path d="M15.1851 20.582C15.1851 17.3143 17.8434 14.6561 21.1111 14.6561C21.7704 14.6561 22.404 14.7659 22.9968 14.9655L23.49 9.04758H4.76392L6.23038 26.6445C6.38715 28.5261 7.98897 30 9.87715 30H18.3768C20.2649 30 21.8668 28.5261 22.0236 26.6445L22.0411 26.4343C21.738 26.4823 21.4275 26.508 21.1111 26.508C17.8435 26.508 15.1851 23.8497 15.1851 20.582Z" fill="black"/>
<path d="M21.1111 16.0317C18.6021 16.0317 16.5608 18.073 16.5608 20.582C16.5608 23.091 18.6021 25.1323 21.1111 25.1323C23.6201 25.1323 25.6614 23.091 25.6614 20.582C25.6614 18.073 23.6201 16.0317 21.1111 16.0317ZM23.3435 21.8416C23.6121 22.1103 23.6121 22.5457 23.3435 22.8144C23.2092 22.9487 23.0331 23.0158 22.8571 23.0158C22.6811 23.0158 22.5049 22.9487 22.3706 22.8144L21.1111 21.5548L19.8515 22.8144C19.7172 22.9487 19.5411 23.0158 19.365 23.0158C19.1891 23.0158 19.0129 22.9487 18.8786 22.8144C18.61 22.5457 18.61 22.1103 18.8786 21.8416L20.1382 20.582L18.8786 19.3224C18.61 19.0537 18.61 18.6183 18.8786 18.3496C19.1473 18.0811 19.5827 18.0811 19.8514 18.3496L21.111 19.6092L22.3706 18.3496C22.6394 18.0811 23.0748 18.0811 23.3435 18.3496C23.6121 18.6183 23.6121 19.0537 23.3435 19.3224L22.0839 20.582L23.3435 21.8416Z" fill="black"/>
<path d="M11.3228 2.63657C11.3228 1.94131 11.8885 1.37566 12.5837 1.37566H15.6702C16.3655 1.37566 16.9312 1.94131 16.9312 2.63657V3.49586H18.3069V2.63657C18.307 1.18283 17.1241 0 15.6703 0H12.5838C11.1301 0 9.94727 1.18283 9.94727 2.63657V3.49586H11.3228V2.63657Z" fill="black"/>
<path d="M23.9154 6.42859C23.9154 5.57001 23.2169 4.87152 22.3583 4.87152H5.89569C5.03711 4.87152 4.33862 5.57001 4.33862 6.42859V7.67203H23.9154V6.42859Z" fill="black"/>
</svg>
