<svg width="28" height="28" viewBox="0 0 28 28" fill="none" xmlns="http://www.w3.org/2000/svg">
<g clip-path="url(#clip0_2_1721)">
<path d="M27.1855 3.62931V3.18922C27.1855 1.42886 25.7566 0 23.9962 0C22.2359 0 20.807 1.42886 20.807 3.18922V3.62931H27.1855Z" fill="black"/>
<path d="M19.7497 25.1194H2.24327C1.44882 25.1194 0.802979 25.7653 0.802979 26.5597C0.802979 27.3542 1.44882 28 2.24327 28H21.7272L19.7497 25.1194Z" fill="black"/>
<path d="M18.9438 7.84732H2.24327C1.44882 7.84732 0.802979 8.49317 0.802979 9.28761C0.802979 10.0821 1.44882 10.7279 2.24327 10.7279H18.9438V7.84732Z" fill="black"/>
<path d="M18.9438 13.6028H2.24327C1.44882 13.6028 0.802979 14.2486 0.802979 15.0431C0.802979 15.8375 1.44882 16.4834 2.24327 16.4834H18.9438V13.6028Z" fill="black"/>
<path d="M18.9438 19.3582H2.24327C1.44882 19.3582 0.802979 20.0041 0.802979 20.7985C0.802979 21.593 1.44882 22.2388 2.24327 22.2388H18.9438V19.3582Z" fill="black"/>
<path d="M20.8127 5.49826V23.3819L23.7162 27.5771C23.8534 27.7771 24.1506 27.7771 24.2935 27.5771L27.1969 23.3819V5.49826H20.8127Z" fill="black"/>
</g>
<defs>
<clipPath id="clip0_2_1721">
<rect width="28" height="28" fill="white"/>
</clipPath>
</defs>
</svg>
