<svg width="30" height="30" viewBox="0 0 30 30" fill="none" xmlns="http://www.w3.org/2000/svg">
<g clip-path="url(#clip0_2_1750)">
<path d="M15 -5.72961e-05C14.4938 -5.72961e-05 13.9938 0.0753502 13.515 0.195255C13.235 0.26623 12.965 0.359443 12.695 0.468693C12.5913 0.511205 12.4852 0.537868 12.3828 0.58588C12.3403 0.605668 12.3078 0.643305 12.2657 0.664005C12.0117 0.78973 11.763 0.935305 11.5235 1.09369C11.4898 1.11544 11.4397 1.11043 11.4063 1.13276C11.3359 1.18106 11.28 1.23799 11.211 1.28894C11.0149 1.42969 10.809 1.55894 10.625 1.71869C10.4573 1.86957 10.3133 2.05919 10.1563 2.22644C9.62491 2.77132 9.16429 3.34782 8.78904 4.02344C8.14479 5.15269 7.66379 6.42407 7.46104 7.73432C7.36316 7.71369 7.27341 7.70632 7.18754 7.73432C6.53116 7.94807 6.36941 9.19494 6.79691 10.5077C7.04779 11.2781 7.46516 11.8846 7.89066 12.2264C8.46229 14.4487 9.67279 16.3012 11.25 17.4612V18.7499L10 19.9999L7.50004 21.2499C5.47841 22.2512 3.46454 23.2562 1.44529 24.2574C0.326376 24.9324 -0.106586 26.2574 3.87914e-05 27.4999C0.0521188 28.2824 -0.230561 29.2837 0.546914 29.8049C1.28554 30.1849 2.16679 29.9374 2.96879 29.9999C5.31454 29.9987 7.65429 29.9999 10 29.9999C13.3363 30.0012 16.6638 29.9999 20 29.9999C22.9588 29.9999 25.9088 30.0049 28.8675 29.9999C29.8275 29.9324 30.0938 28.9187 30 28.1249C30.0175 26.9599 30.0863 25.6549 29.18 24.7649C28.44 24.0124 27.3875 23.7149 26.485 23.2024C25.1588 22.5462 23.825 21.9062 22.5 21.2499L20 19.9999L18.75 18.7499V17.4612C20.3275 16.3012 21.5375 14.4487 22.11 12.2264C22.535 11.8844 22.9525 11.2779 23.2025 10.5077C23.63 9.19494 23.4688 7.94807 22.8125 7.73432C22.7263 7.70632 22.6375 7.71369 22.5388 7.73432C22.3363 6.42407 21.855 5.15269 21.2113 4.02344C20.8363 3.34782 20.375 2.77132 19.8438 2.22644C19.6863 2.05919 19.5425 1.86957 19.375 1.71869C19.3675 1.71182 19.3438 1.72557 19.3363 1.71869C18.8463 1.28132 18.3025 0.945018 17.735 0.664005C17.5913 0.59373 17.4513 0.52833 17.305 0.468693C17.2 0.42618 17.0988 0.388368 16.9925 0.351505C16.6738 0.240905 16.3475 0.134555 16.015 0.0780677C15.99 0.0738115 15.9625 0.0820027 15.9375 0.0780677C15.6263 0.0291377 15.3188 -0.0034948 15 -5.72961e-05Z" fill="black"/>
<path d="M0 28.75C0.0330238 29.125 0.158138 29.4999 0.546875 29.7499C1.2855 30.1249 2.16675 29.875 2.96875 30H10H20H28.8675C29.5875 29.875 29.92 29.375 30 28.75H0Z" fill="black"/>
</g>
<defs>
<clipPath id="clip0_2_1750">
<rect width="30" height="30" fill="white"/>
</clipPath>
</defs>
</svg>
