<svg width="30" height="30" viewBox="0 0 30 30" fill="none" xmlns="http://www.w3.org/2000/svg">
<g clip-path="url(#clip0_2_1717)">
<path d="M15 18.75C17.0711 18.75 18.75 17.0711 18.75 15C18.75 12.9289 17.0711 11.25 15 11.25C12.9289 11.25 11.25 12.9289 11.25 15C11.25 17.0711 12.9289 18.75 15 18.75Z" fill="black"/>
<path d="M29.0062 14.6812C27.9036 11.829 25.9893 9.36245 23.5001 7.58633C21.0109 5.81021 18.0557 4.80241 15 4.6875C11.9442 4.80241 8.98908 5.81021 6.49984 7.58633C4.01061 9.36245 2.09637 11.829 0.993717 14.6812C0.919249 14.8872 0.919249 15.1128 0.993717 15.3188C2.09637 18.171 4.01061 20.6375 6.49984 22.4137C8.98908 24.1898 11.9442 25.1976 15 25.3125C18.0557 25.1976 21.0109 24.1898 23.5001 22.4137C25.9893 20.6375 27.9036 18.171 29.0062 15.3188C29.0807 15.1128 29.0807 14.8872 29.0062 14.6812ZM15 21.0938C13.7947 21.0938 12.6166 20.7364 11.6145 20.0668C10.6123 19.3972 9.8313 18.4455 9.37008 17.332C8.90886 16.2185 8.78818 14.9932 9.02331 13.8112C9.25844 12.6291 9.83881 11.5433 10.691 10.6911C11.5433 9.83884 12.6291 9.25847 13.8111 9.02334C14.9932 8.78821 16.2185 8.90889 17.3319 9.37011C18.4454 9.83133 19.3971 10.6124 20.0667 11.6145C20.7363 12.6166 21.0937 13.7948 21.0937 15C21.0912 16.6154 20.4484 18.1639 19.3062 19.3062C18.1639 20.4485 16.6154 21.0913 15 21.0938Z" fill="black"/>
</g>
<defs>
<clipPath id="clip0_2_1717">
<rect width="30" height="30" fill="white"/>
</clipPath>
</defs>
</svg>
